<?xml version="1.0" encoding="utf-8"?>
<!-- Generator: Adobe Illustrator 26.0.3, SVG Export Plug-In . SVG Version: 6.00 Build 0)  -->
<svg version="1.1" id="Layer_1" xmlns="http://www.w3.org/2000/svg" xmlns:xlink="http://www.w3.org/1999/xlink" x="0px" y="0px"
	 viewBox="0 0 1079.1 582.9" style="enable-background:new 0 0 1079.1 582.9;" xml:space="preserve">
<style type="text/css">
	.st0{opacity:0.14;}
	.st1{fill:#3A3A3A;}
</style>
<g id="Group_182" transform="translate(-15.439 -47.293)" class="st0">
	<path id="Path_206" class="st1" d="M501.6,208.5c-0.2,1,0.4,1.5,1.4,1.3c-0.9,1.9-2.6-0.2-3.4-1.2c0.1-0.2,0.2-0.4,0.3-0.6
		c0.2,0.2,0.5,0.4,0.7,0.6c0-0.3,0-0.6,0.1-0.8C501.3,207.8,501.4,208,501.6,208.5L501.6,208.5z M229.9,125.8L229.9,125.8
		c-0.3,0.4-1,0.4-1.3,0.7c-1.1-2.6-1.7-2.1-4.4-2.1c1.4-0.9,2.7-1.8,4-2.7c-0.5-0.2-0.8-0.7-1.3-0.9c0.6-0.4,1.3-0.8,2-1.2
		c-1.5-0.8-2.2-1.5-3.8-0.9c-1.7,0.6-2.3,1-3.9,0.2c-1.6-0.8-2.4-0.2-4.1-0.1c-0.7,0-1.7,1.7-2.3,2.2c0.7,0.3,3.7,1.1,3.7,1.8
		c0,1.6,0.1,3.5-2.1,3.1c-1-0.2-2.2-2.5-3.2-2.2c-1.1,0.4-2.7,1.3-1.3,2.4c2.5,2,5.5,2.7,7.5,5.3c1,1.2,1.7,2.8,3.1,3.1
		c1.2,0.2,3.1-0.7,2.6-2.2c2,0.9,7.4-2.8,3.8-4c0.5-0.2,1.1-0.4,1.6-0.6C230.5,127.1,230.2,126.5,229.9,125.8L229.9,125.8z
		 M497.8,208.4L497.8,208.4c0.1,0.4-0.5,1.5,0.4,2.2c-0.2-0.9,0-1.8,0.5-2.5c-0.4-0.1-0.8-0.2-1.2-0.2
		C497.4,208.3,497.6,208.2,497.8,208.4L497.8,208.4z M288.6,157.1L288.6,157.1c1,0.9,4,2.6,5.1,0.8c1.2-1.9,0.2-2.8,0.9-4.6
		C292.2,150,285.9,154.7,288.6,157.1z M306.3,135c-0.7,0.4-3.6,1.7-3.4,2.5c0.7,1.8,2.8,0.4,3.5-1.1c0.8-1.8,7.1,2.4,8.4,3
		c-0.5,1.8-3,1.8-4.4,2.2c1.1,0.2,2.4-0.1,2,1.6c1.2-0.6,2.8-0.9,3.1-2.6c1.1,0.7,2.8,1.5,2.8,3.1c-1.6-0.3-3.2,0.2-4.4,1.2
		c0.9,0.5,2,0.8,3.1,0.8c2-0.4,1.8-0.4,2.6,1.7c-1.3-0.3-2.6-0.5-3.8-0.8c0.1,0.9,0.3,1.7,0.4,2.6c-0.9,0.1-1.8,0.2-2.7,0.3
		c3.2,1.5,6.5,2.7,9.8,4c1.3,0.5,2.5,1.3,3.3,2.4c1.4,1.5,2.3,1.5,4.3,1.7c-0.4,0.7-0.9,1.4-1.3,2c1.3,0,3.7-0.6,5-0.1
		c2,0.9,1.3,2.2,1,4.4c-1-0.2-2.6-0.9-3.2,0c0.8,0.4,1.6,0.7,2.3,1.1c-2.3,1.2-3.2,2.4-5.5,0.9c0.2,1.7,0.6,3.6,0.1,5.2
		c-2.3-1-4.4-2.6-5.9-4.7c1.2-0.5,3-0.7,2.4-2.6c-0.8,0.3-2.4,1.3-3.1,1.1c-1-0.2-2-2.1-2.9-2.7c-1.1-0.6-1.9-0.8-2.6,0.3
		c-1,1.5,0.8,1.4,0.9,3.1c-0.8-0.1-1.7-0.2-2.5-0.3c0.3,0.9,0.5,1.7,0.8,2.6c1.3-0.5,1.6-1.1,2,0.4c0.4,1.2,0.8,2.4,1.2,3.7
		c0.4-1.9,1.3-1.1,2.5-0.5c1.4,0.7,1.3,1,1.6,2.8c0.3,1.4,1.5,0.9,2.2,2c0.5,0.9,0.4,3,0.5,4c-0.5-0.7-1-1.3-1.5-2
		c-0.9,1.6,1.4,2,0.7,3.7c-0.3-0.2-0.8-0.1-1.1-0.3c0.2,0.6,0.5,1.3,0.7,1.9c-0.6,0.2-2.4-2-3.4-2.7c-1.8-1.2-3.7-2.3-5.5-3.5
		c0.2,0.5,0.3,1.1,0.5,1.6c-1.1-0.5-2.2-1-3.2-1.4c0.6,1.1,1.2,2.1,1.8,3.2c0.4,0.8,2.1,0.6,2.8,1.1c1.1,0.8,2.2,1.6,3.4,2.4
		c1.1,0.8,0.7,1.3,0.5,2.8c-3-0.8-6.1-1.6-9.1-2.3c-1.1-0.3-1-1.7-1.7-1.8c-1.5-0.4-3.1-0.8-4.6-1.2c0.2-0.3,0.3-0.5,0.5-0.8
		c-1.6,0-2.5-0.6-3.8-1.4c0.8-0.4,1.6-0.8,2.4-1.2c-1.4-0.8-3-0.6-3.9-1.9c-1.6-2.4-1.5-3.9-3.9-2.3c0-1-0.6-1.6-1.5-1.4
		c0.1,0.5-0.2,1-0.2,1.4c-1.4-0.3-2.9-1.2-4-0.2c-1.2,1.1-3,0.7-4.5,0.8c-1,0-2.6-1.9-2.1-2.8c0.7-1.3,2.7-1.7,2.4-3.2
		c2.2,0.3,4.8,1.1,7,0.5c0.5-0.2,3.9-0.7,4.1-1.2c0.4-1.2-2-2.3-2.5-2.8c1.9-1.9,3.7-3.8,5.6-5.6c0.5-0.5,1.3-0.9,1-1.6
		c-0.8-1.4-1.6-2.9-2.4-4.4c-1.2-2.2-3.7-1.6-4.8-3.6c-0.9-1.5-0.8-1.4-2.3-0.8c-1.2,0.4-2.3,0.9-3.5,1.3c0-2.9,0.5-2.5,3-3.2
		c-1.4-1.1-4.3-5-6-3.2c-0.1-0.8-0.3-1.5-0.5-2.3c-0.1-0.7-1.4,0.1-1.9-0.2c-1.4-0.6-1.2-3.5-3.1-1.7c1.5,0.4,1.7,1.2,2.4,2.7
		c-3.6,0.9-5.9,0-9.5-1c0.9,0.9,1.8,1.7,2.7,2.6c-1.2,0.5-1.5-1.1-2.6-1.2c-0.4,0-0.7,1.1-1.1,0.9c-0.8-0.3-1.5-0.6-2.2-0.9
		c-2.1-0.8-5.1-0.3-7.4-0.4c-1.2,0-2.3-0.3-3.4-0.9c-1.3-1.2,0.5-1.9-2-1.7c-1.1,0.1-1.7,1.2-3,0.4c-1.9-0.9-3.4-2.4-4.4-4.2
		c2.4,0.2,4.7,0.4,7.1,0.6c-2.3-2.5-4.5-2.2-7.7-2.5c-0.3,0-0.7-3.5-0.8-4.1c-0.2-1.1,1.3-3.5,1.7-4.5c0.8-2.5,2.7-4.6,5.1-5.6
		c3.4-1.4,4.9-1.5,8.5-1c-0.2,0.9-0.4,1.8-0.7,2.6c2.4-0.5,4.7-1.3,6.9-2.4c0.9-0.3,2.4,0.1,3.4,0.1c1.3,0.1,1,1.8,1.7,2.7
		c0.8,1.1,1.3,0.9,1.9,2.2c0.9,1.9,0.7,1.9-0.3,3.8c-0.9,1.6,0.4,1.5,1.4,0.6c1.6-1.6,1.5-1.5,3.4-0.4c0.5,0.3,2.1-1.7,2.6-2.1
		c0.7-0.7,2.7-0.5,3.6-0.6c1.8-0.2,4.9,1.1,6.2,2.4c1.1,1.1,3.9,5.5,5.1,5.1C302,132.7,305.4,132.3,306.3,135L306.3,135z M211.5,105
		L211.5,105c-0.8,0-1.5,0.4-2,0.9h2.6c-2.7,1.9,1.1,2,2.4,1.7c2-0.4,4.1-0.6,6.1-0.8c-0.2,0.7-0.9,1.1-1.7,1
		c0.2,0.1,0.3,0.3,0.5,0.4c-0.8-0.1-1.6,0.2-2.1,0.9c0.8,0,1.7,0.2,2.4,0.6c-0.5,0-1,0.1-1.5,0.2c0.2,1.3,1.2,1.2,2.3,1.6
		c0.6,0.2,0.9-0.8,1.4-0.7c1.6,0.1,3.8,0.8,5.1-0.5c-0.5-0.2-0.9-0.8-1.4-1.1c0.6-0.4,0.8-1.1,0.8-1.7c0.3,0.3,0.8,0.4,1,0.7
		c0.3-1.2-0.5-1.5-0.6-2.5c0-0.9,0.4-1.7,0.4-2.5c-0.2-0.9-0.7-1.7-1.3-2.3c-0.6-0.2-1.9-1.1-2.5-0.7c-1.9,1.1-3.3-0.5-5.6,0.4
		c-2.5,0.9,1.6,1.1,1.9,2.3c-0.5-0.1-0.9,0.1-1.4,0c0.6,0.9,1.3,1.7,1.9,2.6c-0.9-0.5-7.2-6.5-6.9-2.4c0.6,0,1.2,0,1.8,0.1
		c-1.4,0.6-1.1,2,0.4,1.5C215.1,106,212.7,104.8,211.5,105L211.5,105z M211.6,145.3c-0.4-0.2-0.8-0.4-1.1-0.7
		c-0.4-0.1-0.8-0.1-1.2-0.2c0.9,0.9,0.6,1.9,0.6,3c1.1-1.1,2.2-2.1,3.9-1.6c-1,1.4,0.5,1.2,0.5,2.3c0,0.7-2.5,1.4-3.1,1.5
		c-2.5,0.2-4.8-1.1-7.2-1.1c0.3-0.2,0.5-0.5,0.8-0.7c-1.4-0.3-2.9-0.6-4.4-0.9c0.2-0.4,0.1-0.9,0.3-1.3c-1.2-0.4-1.3,0.7-2.2,1.4
		c-0.8,0.7-1.8,1.1-2.8,1.2c-2.1,0.4-2.8,1.8-4.9,2c-3.1,0.3-6.1,0.5-9.2,0.7c-2.5,0.2-3.1-1.2-2.8-4c-4.3-0.2-9.5,0.7-11.1-4.8
		c2.7-0.6,6.2-2.1,8.9-1.7c1.7,0.3,3.5,0.6,5.2,0.7c0.8,0,4.4-0.6,2.2-1.2c-3-0.9-6.1-1.5-9.3-1.6c-2.3,0-4.5,0-6.8,0.1
		c-1.7,0-2.1-0.7-3.5-2.1c2.2-1,4.4-2,6.7-3c-2.1,0.1-4.3,0.1-6.4,0.2c0.2-0.3,0.3-0.9,0.5-1.2h-3c-0.3-2,1.6-3,2.8-4.2
		c-0.5-0.1-0.9-0.6-1.4-0.7c2.7-2.2,5.8-3.8,9.1-4.9c1.7-0.7,2.4-1.3,3.9-0.4c2.1,1.2,0.6,2.8-0.9,4c0.9-0.1,1.8-0.1,2.7-0.2
		c0.9-0.1,1.1-1.9,1.8-2.1c1.1-0.3,4.3,2,5.4,2.5c-0.4,0.6-0.9,1.1-1.3,1.7c1.6,0,1.7,0.1,2.6-1.4c0.3-0.6,2.5,0.3,3.1,0.5
		c-0.9-1-1.9-2-2.8-3c1.6-0.3,5.5-0.1,6.2,2.1c0.5,1.6,1.1,3.3,1.7,4.9c0.5,1.5,1.2,0.6,2.4,0.1c-0.6-1.8-1.3-3.5-1.9-5.3
		c-0.3-0.8-0.6-1.6-0.9-2.4c-0.3-0.7,1.1-1.1,0.4-2.2c0.6,0.3,2.7,1.8,3.1,1.2c0.9-1.3,1.9,0.3,3,1c2.7,1.5,3.5,5.9,4.7,8.9
		c0.5,1.2-0.6,2.7-0.2,3.6c0.4,0.9,3.4,2.1,4.2,2.6c2.1,1.3,4.5,2.8,6.6,2.3c0.1,1.3,0.4,5.1-1.5,2.2c-0.1,0.4-0.5,0.7-0.6,1
		C213.4,143.4,212,142.7,211.6,145.3L211.6,145.3z M221,148.3L221,148.3c0.3,0.4,0.8,0.8,1.2,1.1c0.2-0.6,0.4-0.4,0.7-0.7
		c0.1,0.7,0.6,1.2,1.3,1.2c0.1-0.2,0.2-0.5,0.3-0.7c0.6,1.8,3.5,2,5,2.3c1.6,0.3,3.2-1.3,4.5-2.2c-1.8-1.6-3.7-3.1-5.7-4.5
		c-1.2-0.8-2.1-2.1-3.1-1c-0.8,0.8-2.1,1.8-0.7,2.8c-0.2,0.1-0.5,0.1-0.7,0.2C223.1,148.1,221.7,146.9,221,148.3L221,148.3z
		 M499.2,206.6L499.2,206.6c-0.2,0.1-0.4,0.2-0.6,0.3c0.1,0.2,0.2,0.4,0.3,0.6c0.7-0.7,1.1-1.1,1.9-1.3c-0.1-0.2-0.3-0.4-0.4-0.6
		c1.3-0.1,1.1-1.9,0.5-1.6C500.1,204.4,497.4,205.2,499.2,206.6L499.2,206.6z M279.1,177.2L279.1,177.2c-2-1.5-2.4-1.6-4.8-1.3
		c2.1-2.1-3.4-4.9-4.5-5.6c-0.8-0.6-2.1-0.3-2.8-1c-1-1.1-1.4-1.6-2.5-0.1c-0.3-0.4-0.5-0.8-0.6-1.3c2.2-0.4,1.5-3.4-0.4-2.6
		c-1.9,0.8-1.8,2.5-2.4,4.7c-0.2,0.9-0.4,1.8-0.5,2.7c-0.1,0.6,0.5,1.7,0.3,2.2c-0.3,0.7-2.5,2.3-3,3.1c0.6-0.1,4.2-1,4.4-0.8
		c0.4,0.3,0.7,3.9,1.5,3.4c1.2-0.8,2.1-2.5,3.2-2.9c1.8-0.6,1.5-2.1,3.3-2.8c-0.4,2.8,4.4,3.4,6.1,3.9
		C277.4,178.4,278.2,177.8,279.1,177.2L279.1,177.2z M243.6,112.5L243.6,112.5c0.7,1.5,2.7,0.1,3.6-0.5c0.7,1.5,0.7,1.8,2.2,1.9
		c1.3,0.1,2.4,0.6,2.7-1.2c0.2,0.4,0.7,0.7,0.9,1.1c0-0.6,0.3-1.3,0.3-1.9c1.6,0.7-0.1,2.7,1.7,2.8s3.7,0.2,5.5,0.2
		c-0.1-0.4,0.1-0.9-0.1-1.3c1,1.3,3.5,1.9,4-0.2c0.5,2,3.3,0.7,4.7,0.5c-0.1-0.8-0.3-1.5-0.4-2.3c1.9,0,0.9,2.1,2.3,2.6
		c1,0.5,2.2,0.8,3.4,0.7c0.8-0.1,4.2-0.2,4.4-1c0.5-1.7,1.1-1.6,2.7-2.1c-0.7-0.6-1.7-1-2.6-1c0.7-0.5,1.5-1.1,2.2-1.6
		c-2.9-2.4-6.5-4.4-10.2-3.1c-1.6,0.5-2.9-0.3-4.6,0.3c-1.6,0.6-3.2,1-4.9,1.3c0.3,0.2,0.6,0.6,1,0.8c-1.7-0.4-4.1-1.5-5.8-1.3
		c-0.5,0.1-1.5,1-2,0.7c-0.8-0.5-1.6-1.1-2.5-1.6c-0.4-0.3-3.9-2.2-3.9-2.3c-0.3-1.1,3.1,0.2,3.4-1.3c-1-0.3-1.9-0.5-2.9-0.8
		c-1.3-0.4-0.7-1.1-1.7-1.7c-1.7-1.1-3.5,0.4-5.3,0.1c-1.8-0.4-2.7-1.9-4.4-2.2c-1.8-0.3-4.1-1.2-5.9-0.6c-3,0.8-2.1,2.1-0.1,4
		c1.9,1.9,3,1.5,5.3,1.2c2-0.3,3-1,4.4,0.7c0.9,1,3.3,3,1.7,4.4C242.1,109.9,242.6,110.3,243.6,112.5L243.6,112.5z M295.8,154.2
		c1.2-1.3,3.4-1,3.9,1.3C299.3,155.4,294.7,155.5,295.8,154.2z M253.3,63.7c-1.6,0.6-3.2,1.3-4.8,1.9c-1.6-0.8-3.3-1.6-5-2.3
		c2.6-1.5,5.6-3.1,8.1-1c1.9-4.1,6.6-2.1,10.2-2.3c-0.9-0.4-1.9-0.9-2.8-1.3c1.4,0,2.7-0.1,4-0.1c-0.3-0.7-0.6-1.4-0.8-2.1
		c1.2,0,2.9-0.3,4,0.4c1.4,0.9,3.1,2.6,4.7,3c3.5,0.9,7.1,1.8,10.6,2.6c-3.2-1.7-6.4-3.4-9.6-5.2c1.1-0.9,2.6-2.9,4-3
		c1.3-0.1,2.5-0.2,3.7-0.2c0.9-0.1,1.1-1.1,1.8-1.4c1-0.4,4.2,0.5,5.2,0.9c1.9,0.8,3.8,1.6,5.7,2.3c-1.6-1.3-3.2-2.7-4.9-4
		c2.7,0.1,5.4,0.1,8.1,0.1c1.9,0.1,3.9,2.2,5.5,3.3c-0.4-0.9-0.9-1.8-1.3-2.7c3.3-0.4,6.9-1.5,10.1-1.5c3.5,0,7.1,1,10.5,1.5
		c-1.8,1-3.7,2.1-5.5,3.1c3.4-0.7,6.5-1.8,9.9-1.2c3.8,0.7,7.6,1.7,11.3,3c-2.8,1.5-6.7,4.8-9.8,5c-4.3,0.3-8.7,0.6-13,1
		c2,0.3,3.9,0.7,5.9,1c-3.4,1-6.7,2-10.1,3c5.5-1.1,11.1-2.2,16.6-3.3c-0.2,2.7-7.5,4.6-9.7,6c-1.6,1-3.9,3.2-5.8,3.5
		c-2.2,0.5-4.3,0.9-6.5,1.3c1.4,0.1,2.7,0.2,4,0.2c-1.1,1.4-2.5,2.5-4.1,3.2c-1.3,0.7-3-0.3-4.4-0.7c0.2,0.6,0.4,1.3,0.6,2
		c-3.7,0.8-7.5,1.1-11.2,1.5c1.5,0.1,7.5-0.6,7,1.9h-6.2c1.5,0.4,6.2,0.6,6,2.8c-1.8,0.2-3.6,0.4-5.4,0.7c1,0.5,2,1.1,3.1,1.7
		c-0.9,1.5-2.3,2.6-4,3c-1.1,0.4-3.5-1.2-4.2-0.7c-0.9,0.7,2,1.6,0.2,3.1c-0.6,0.5-3.8,2.9-3.2,3.9c0.8,1.2,0.8,0.8,1.9,0.1
		c1-0.6,1.2-0.2,2.2,0.4c0.6,0.3,0.5,1.8,0.5,2.4c0.1,0.6-1.4,0.8-1.8,0.9c-0.7,0.2-1.2-0.6-1.4-0.5c-0.5,0.2-0.8,1.2-1.3,1.4
		c-1.8,0.5-3.6,1.1-5.4,1.6c0.4-1.6,0.9-2.1-0.3-3.1c-0.9-0.7-1.5,1-2.8-0.3c-0.1,2.4-3,1.1-3.7-0.4c0.4,1.9-1.3,1.2-2.3,0.9
		c-1.1-0.4-1.5,1.1-3.1,1.1c-1.3,0-2.7-0.2-4-0.4c-1.3-0.1-2.6,0.9-2.9-1.1c-0.8,2.3-3.5,0.9-3.6-1.2c-1.2,1.3-1.6,2.6-3,0.8
		c1-0.6-0.3-1.3,0.2-1.9c0.5-0.6,2.2-1,2.9-1.3c2.1-0.9,3.1-0.4,4.8-2.1c-2.5-0.2-2.5-0.5-3.8-2.8c1.7-0.6,3.5-0.7,5.2-0.3
		c1.5,0.2,1.7,2.6,3.4,3.1c4.3,1.1,5.9-1.3,8.4-4.8c-1.5,1.6-4.5,5.4-7.1,3.5c-3.2-2.3-0.6-4.1,0.4-7.1c-1.4,1.3-2.8,3.7-4.7,3.3
		c-2.7-0.6-5.3-0.8-2.4-3.6c3.1-3.1,8.6-2.6,12.1-0.7c-1.3-2.5-3.1-4.7-5.4-6.5c-2.4-1.6-6.7-1.3-4.5-5.7c-0.1,0.2,7.3,0.2,7.7,0.3
		c2.5,0.7,5.4,3.3,7.7,4.7c-1.8-1.7-3.6-3.3-5.5-5c5.5-1,10.8-2.1,16.2-3.6c-0.8-0.4-1.7-0.7-2.5-1.1c1.4-1.2,2.7-2.4,4-3.7
		c-3.2,1.4-5.4,2.4-8,4.9c-0.8,0.8-3.4,0.7-4.4,0.9c-1.7,0.3-3.4,0.6-5,1c1-0.9,2-1.7,3-2.6c-1.4,0.4-2.7,0.8-4.1,1.2
		c0.3-0.3,0.6-0.8,0.9-1.1c-0.6,0.2-2.5,0.4-2.6,1.1c-0.2,1.9-0.4,1.5-2.1,1.5c-2.1-0.1-4.2-0.3-6.3-0.7c1.9-1.8,4.2-3.1,6.8-3.7
		c-3.4,0.3-4.7,0.5-7.6,2.4c-2.3,1.5-4.8-0.1-7.3-0.8c2.3-1.1,3.9-1,6.4-1.2c2.4-0.3,4.7-1.1,6.8-2.3c-2.5,0.7-5.3,1.7-8,1.8
		c-2.9,0.1-5.5,1.5-7.9-0.2C250.4,66.2,251.8,64.9,253.3,63.7L253.3,63.7z M216.9,92.5L216.9,92.5c-1-1.3-2.4-1.1-3.8-0.8
		c-1.6,0.3-0.6,1.5,0.6,1.4C214.8,92.9,215.7,92.2,216.9,92.5L216.9,92.5z M280.2,188.8L280.2,188.8c0.9-0.8,3.5-3.5,0.9-4.4
		c-1.1-0.3-2.2,1-2.3,1.9C278.8,187.6,279.4,187.8,280.2,188.8L280.2,188.8z M490.8,234.7L490.8,234.7c-0.3,0.2-0.6,0.6-0.9,0.8
		c2.7,2.3,6.5-2,9.2-2.7c0.9-0.2,1.6,0.6,1.9-0.5c0.3-1,0.6-2,0.9-3c0.2-1.4-0.2-2.9-1.2-3.9c1.9-1.3,2.4-1.3,2.6-3.7
		c-0.9,0.3-1.2-1.4-1.9-2.3c-0.5-0.5-2.2,0.2-2.8,0.4c0.2-0.3,0.3-0.5,0.5-0.8c-2.1-1.3-4.2,1.1-5.2,2.8c0.7,0.3,1.4,0.5,2,0.7
		c-0.9,0.7-1.3,1.4-2.3,1.1c-0.7-0.2-1.6-0.7-2.3-0.4c-1.2,0.6-0.8,0.8-0.4,2.1c0.2,0.6-0.9,1.3-1.3,1.8c1.1,0.6,2.3,1,3.5,1.1
		c-1,0.9-2,1.9-2.8,3c1.2-0.3,2.4-0.8,3.6-0.4c-0.8,0.2-2.5,0.2-3,0.9c-0.4,0.7-1.2,1.2-2,1.3c0.5,0.1,1,0.4,1.5,0.4
		c-0.5,0.3-1,0.6-1.5,0.8C489.4,234.4,490.1,234.6,490.8,234.7L490.8,234.7z M267.9,184.4L267.9,184.4c0.1,0.3,0.3,1.5,0.7,1.5
		c2.5-0.2,5.4-1.3,5.7-4.4c-0.6,0-1.3,0-1.9-0.1c-1.6,0.2-2.5,0.3-3.8,1.3C267.8,183.4,267.5,183.3,267.9,184.4L267.9,184.4z
		 M239.2,110.6c0.6,3.3-1.6,3-3.9,3.3c-1-0.5-5-2-5.4-3c-0.9-2.6,4.3-3.5,5.4-3.8C237,106.4,238.9,109,239.2,110.6L239.2,110.6z
		 M204.5,84.8c0.2-0.6,0.5-1.1,0.8-1.7c-0.9,0-1.8,0.1-2.6,0.1c0.9-2.7,2.3-2.2,4.9-2.5c2.3-0.3,3.3,1.2,4.2,3.2
		c1.1-0.6,5.3-2.3,4.7,1c1.7-0.3,2.1-0.5,3.4,0.6c0.8,0.6,0.6,0.6,0.3,1.6c-0.2,0.7,0.9,1.5,1.3,2c3.1,3.5-3.2,3.7-3.8,2.5
		c-0.8-1.4-0.9-2.2-2.3-2.4c-1.4-0.2-3.3,0.1-4.4-1.1c-0.9-1.1-6,3.4-6.5-1.2c1.6-1.1,5.2,1,5-1.6c-0.8-0.1-1.6-0.3-2.4-0.4
		c0.3-0.2,0.5-0.6,0.8-0.8C206.6,82.6,206.1,85,204.5,84.8L204.5,84.8z M205.3,96.8L205.3,96.8c0.7,0.8,1.6-0.5,0.9-1.4
		c-0.5-0.6-1.1-1.2-1.7-1.7c-0.9-0.7-1.7-1.7-2.9-1.2c0.2,0.9,0.4,1.7,0.7,2.6C203,95.8,204.7,96.2,205.3,96.8L205.3,96.8z
		 M223.3,75.8L223.3,75.8c-0.7-1.8-5.1-1.3-3.8,1.2C221.5,77.8,224.8,79.7,223.3,75.8z M229.1,89.8L229.1,89.8
		c-0.8,0.4-1.8,0.2-2.7,0.6c0.7,0.3,2.1,1.8,2.4,1.8c0.9-0.1,1.8-0.3,2.7-0.6c0.9-0.3,2.7-0.3,3.3-1.2c0.5-0.9-0.8-1.3,0.4-2.5
		c-1.1-0.4-2.6-0.4-3.5-0.7c-0.8-0.3-1.7-1.3-2.6-1.7c-1.4-0.6-6.4-1.5-3.6,1.4c-0.3,0-0.6,0.1-0.9,0.2
		C225.2,89.7,227.6,88.3,229.1,89.8L229.1,89.8z M183.5,90.8L183.5,90.8c-2.8,0.4-4-0.1-3.4,3.2c1.2,0,2.3,1.8,3.4,1.5
		c1.7-0.4,3.4-0.9,5-1.3c1.2-0.3,0.6-0.7,0.9-1.6c0.2-0.7-1.9-0.1-2.3-0.9c1.4-0.3,2.8-0.3,3.8-1.6
		C188.7,89.2,185.6,90.5,183.5,90.8L183.5,90.8z M188.6,102.4L188.6,102.4c1.1,0.7,2.2,1.3,3.3,2c-0.7,0.3-1.5,0.6-2.2,0.9
		c0.7,0.3,3.6,1,3.4,1.8c-0.3,1.7-1.9,0.9-3.4,0.8c-0.7,0-3.8,0.3-4-0.6c-0.5-2-0.7-1.8-2.5-1.6c0.3-0.2,0.6-0.3,0.9-0.5
		c-1.2-0.9-2.7-2.9-4.2-2.6c-2.7,0.5-1.7-0.6-4-1.5c-0.4-0.2-3.9,0.1-3.9,1s2.8,1.2,3.5,1.3c-2.3-0.2-3.9-0.5-6,0.5l0,1.1
		c1.4,0.8,3.9,0.2,5.6,0.1c-0.7,0.5-7.2,0.1-7.1,1.7c0.2,1.5,5.6-0.2,6.3-0.3c-2.1,1.8-6.5,0.5-7.8,3c1.4,0.6,3,0.7,4.4,0.3
		c-0.1,0.3-0.1,0.6-0.2,0.9c0.7,0.2,1.5,0.4,2.2,0.6c-0.6-1.6,1.2-1.3,1.5,0.2c1.9-1.2,2.2-1.3,2.9-3.6c1.4,0.5,0.8,1.5,0.6,2.7
		c1.1-0.1,3.6,0.4,3.8-1.1c0.7,1.6,3.3,0.8,4.5,0c-2.2,2.3-6.7,2.7-9.9,3.8c3.8,2.4,5.3,1.6,9.3,0.2c2.2-0.8,4.5-1.6,6.7-2.4
		c1.3-0.5,2,0.8,3.3,0.7c0.6,0,0.7-1.2,1.7-1.2h3.2c1.4,0,2-1.7,2.4-3.2c0.4-1.9,0.2-3.6-2.2-3.3c-3,0.4-0.5,1.3-1.7,2.8
		c-0.4-1.5-1-1.8-2.3-2.2c-0.8-0.3-1-1.8-1.7-2.4c-1.5-1.2-0.3-4.6-3.3-3.4C190.9,100.3,189.8,101.5,188.6,102.4L188.6,102.4z
		 M229.5,75.4L229.5,75.4c0.4,3.5,4.3,3.5,6.6,2.6c-0.8,1.2-1.9,1.1-3.1,1.3c-1,0.1-0.6,1.4,0.3,1.3c0.9-0.1,0.8,1.6,1.9,0.8
		c0.8-0.6,1.2-1.2,2.2-0.8c0,0.2-0.1,0.5-0.1,0.8c1.1,0.6,1.4-0.3,2.3-0.8c0.3-0.1,1.3,1.1,1-0.6c1.7,0.7,4.6-0.2,5.8,0.9
		c-1.4,0.2-2.8,0.4-4.2,0.5c2.1,0.9,4.2,0.4,6.4,0.3c-4,0.8-7.7,0.4-11.5,2c1.1,0.7,2.4,1.2,3.7,1.4c-0.7,0.1-1.4,0.1-2,0.2
		c1.1,1.7,4.2,1.1,6.1,1.5c-1.3,0.1-2.6,0.3-3.8,0.4c1.7,2.7,5.5,2.2,8,2.3c-0.2-0.7-0.7-1.2-1.3-1.4c1.7-0.1,2.4,0.7,3.8,1.7
		c-0.6-1.3-1.2-2.5-1.9-3.8c1.3,1.3,2.5,2.5,3.8,3.7c0.6-1.5,1-2.2,0-3.6c5.3,2.8-0.5-2.2,3.1-3.3c-0.3,1.1,0.2,2.1,0.6,3.1
		c1-0.8,2.5-1.4,1.8-2.9c0.9,0.8,4.7-1.2,6.2-1.7c-0.7-1.1-1.5-2-2.5-2.7c-0.1,0.5-0.6,0.9-0.7,1.4c-0.2-2.6-3.1-1-4.3-0.6
		c1.4-2.7,2.1-3.8-1.2-4.2c2-1.8-0.8-4-2.7-2.4c0.4,0.7,0.8,1.4,1.2,2.1c-1.1,0.1-2.1-0.4-2.7-1.3c-0.4-0.6,0.6-2.4-0.9-1.9
		c-1.6,0.4-3.3-0.2-4.3-1.6c-1.8-2.1-2.8-3.8-5.4-4.4c-1.5-0.4-4-1.3-5.1,0.4c1.4,0.5,3,0,4.2,0.7c-1.3,2.3-5.9-1-7.3,2.6
		c1.1,0.4,2.8,0.2,3.7,0.9c-1.1,0.2-6.3,0.4-4.7,2.1c-0.8,0.3-1.6,0.6-2.4,0.9c1.4,0.7,2.2,0.3,3.6,0.7c-0.2,0.1-0.4,0.2-0.6,0.4
		c1.3,0.6,2.7-0.8,3.9,0c-0.5,0.1-0.8,0.6-1.3,0.7c0.3,0.2,0.5,0.6,0.9,0.8c-0.5-0.1-1-0.2-1.5-0.4C233,75.6,231.2,75.5,229.5,75.4
		L229.5,75.4z M206.3,103.5c0.9-1.1,4.1-1.2,5.5-0.9C212.2,105.1,207.4,104.7,206.3,103.5z M166.8,103.8c0.3,1.2-1.3,2.5-2,3.4
		c-0.5,0.7-2.8,1.1-3.2,0.1C161.1,105.9,165.9,104,166.8,103.8z M501.1,210.7L501.1,210.7c-0.1,0.1-0.3,0.2-0.4,0.2l0.3,0.4
		C501,211.1,501.3,211,501.1,210.7L501.1,210.7z M198.6,121.3L198.6,121.3c1.1,0.3,2.1,0.9,2.9,1.8c1,0.9,1.6,2,2.8,1.4
		c1-0.7,1.6-1.8,1.7-3c-0.1-1.4-0.9-1.6-2.1-2.3C202,119.6,199.5,118.9,198.6,121.3L198.6,121.3z M208.9,110.2L208.9,110.2
		c-0.8-2.1-1.8-1.8-3.5-1.3C203.5,111.8,207.9,110.7,208.9,110.2z M205.6,100.5c1-0.5,2.1-0.5,3.1-0.1c0.7,0.4,1.3,0.8,2,1.3
		c-1.1,1.2-2.8,0.8-4.2,0.7C206.4,101.4,206.1,101.5,205.6,100.5L205.6,100.5z M238.8,94.7c-1.8-0.1-7.3,0.8-8-1.5
		c2.8-1.7,6.2-1.4,9.4-0.5C239.7,93.3,239.3,94,238.8,94.7L238.8,94.7z M279.2,124.6L279.2,124.6c0.6,0.5,1.3,0.9,2.1,1.2
		c1,0.6,4.3-0.8,5.5-1.1c1.5-0.3,3.3,0.1,4.8,0.2c-1.6-2.2-3.7-3.9-6.2-5c-0.9-0.5-2.2,0.2-3.2-0.1c-1.2-0.4-2.3-0.8-3.5-1.3
		c-1.1,0.2-1.8,1.3-1.6,2.4c0.1,0.6,0.5,1.2,1.1,1.4C279.5,123.1,278.4,123.5,279.2,124.6L279.2,124.6z M246.3,93.9L246.3,93.9
		c-1.1,1,1.2,1.9,1.7,2.2c1,0.5,2-0.1,3-0.4C250.9,93.3,247.6,92.6,246.3,93.9L246.3,93.9z M248.3,99.1c0.8-0.6,3.2,0.1,1.9,1
		c0.2,0.2,0.2,0.8,0.5,1.1C249.8,101.6,247.2,99.9,248.3,99.1L248.3,99.1z M963.5,113.4L963.5,113.4c3.1,0.2,6.3-0.1,9.3-1.1
		c0.3-0.7,0.4-1.4,0.3-2.2c-0.2-0.4-2-0.6-2.4-0.7c-1.8-0.6-2.5-0.3-4.3,0.3c0.1-0.4,0-0.9,0.1-1.3c-1.6-0.1-3.2-0.5-4.5,0.7
		c-0.1-3.2-3.8-1.2-3.4,0.7C958.7,110.8,962.6,112.8,963.5,113.4L963.5,113.4z M676.8,134.7L676.8,134.7c1.7,2,4.1,3.3,6.7,3.5
		c2.3,0.2,7.2,1.6,9.2-0.1c-3.2-2.2-5.9-4.1-6-8.7c-0.1-3.6,3.3-6.6,5.3-8.9c1.2-1.4,2.3-3,3.4-4.5c1-1.3,3.4-2.2,4.8-3.1
		c2.6-1.7,4.4-3.8,7.4-4.7c3.6-1.1,7.2-2.1,10.7-3.3c1.8-0.6,8.9-1.9,9.2-5c0.3-3.8-7-2.2-8.3-1.1c-2.9,2.4-6.2,2.9-9.7,3.9
		c-2.9-0.1-5.8,0.4-8.4,1.5c-2.3,1-6.1,1.6-8,3.4c-2.2,1.9-4.4,3.9-6.4,6c-1.4,1.5-2.8,3.1-4.2,4.6c-1.1,1.2-0.5,2-0.1,3.6
		c0.1,0.6-2.9,2.3-3.4,2.7c-1.9,1.4-0.1,1.5-1.1,3.3c-0.7,1.3-2.7,0.7-2.8,2.5C674.9,132.9,675.1,133,676.8,134.7L676.8,134.7z
		 M683.2,73.4L683.2,73.4c-3.3-1.2-3.4-1-6.3,1.3c1.4,0.2,2.7,0.3,4.1,0.5C681.7,74.6,682.4,74,683.2,73.4L683.2,73.4z M695.8,65.5
		L695.8,65.5c-0.8-0.7-1.6-1.4-2.4-2.1c1.6-0.4,3.2-0.8,4.8-1.2c-2.7-0.5-3.7-1.1-5.9,0.5c-1.8,1.3-3.5,2.5-5.3,3.6
		c1.6,0.2,3.3,0.5,4.9,0.7C693.2,66.6,694.5,66.1,695.8,65.5L695.8,65.5z M695.7,140.9c0.6-0.4,1.1-0.7,1.7-1c0.6,0.5,5.3,3,3.9,4.3
		C700,145.3,696.2,142.1,695.7,140.9L695.7,140.9z M700,75.9L700,75.9c-0.6-1.4-2-0.5-3.1-0.2c0.4,0.4,0.9,0.8,1.4,1.1
		C698.9,76.5,699.4,76.2,700,75.9L700,75.9z M694.2,69.2L694.2,69.2c-2-0.6-3.9-1.4-6-1.4c-3,0.1-4-0.3-6,2.1c2,0.5,3.9,1,5.9,1.6
		C690.5,71,692.2,70.8,694.2,69.2L694.2,69.2z M664.7,71L664.7,71c-1.4,1-2.9,1.9-4.3,2.9c2.3,0.8,4.7,1.2,7.1,1.1
		c-0.2-0.8-0.4-1.6-0.7-2.4c2.8-0.7,5.7-1.3,8.5-2c-1.5-1-2.6-2-4.4-1.4c-1.8,0.5-3.5,1.2-5.3,0.8c-3.8-0.9-6.4,0.2-10.2,1.4
		c1.3,0.3,2.6,0.7,3.9,1C661.1,71.9,662.9,71.4,664.7,71L664.7,71z M666.2,149.6L666.2,149.6c1,1,3.9-1.6,4.7-2.2
		c-1-1-2.3-1.7-3.8-1.9C664.8,146.4,664.2,147.6,666.2,149.6L666.2,149.6z M584.8,141.7L584.8,141.7c2.7-0.2,5.1-1.5,6.7-3.6
		c-1.3,0-1.4,1.2-2.4,1.7c-0.9,0.5-2.5,0.2-3.5,0.3C586.2,141,585.7,141.5,584.8,141.7L584.8,141.7z M183.8,88.2
		c-0.9-0.5-2.4,0.3-3.3,0.5c-0.2-0.2-0.5-0.3-0.7-0.5c1.2-1.8,4.6-2,6.4-2.6c1.1-0.4,5.3-0.4,5.7,1.2c0.7,2.8-4.7,0.8-5.6,0.9
		C185,87.9,185.2,89.1,183.8,88.2L183.8,88.2z M695.7,72.2c0.7,0.4,1.5,0.8,2.2,1.2c-0.9,0.1-1.9,0.3-2.8,0.4c0.3,0.3,0.4,0.8,0.7,1
		c-1.9,0.3-7.1,2-7.9-0.2S695,72.2,695.7,72.2L695.7,72.2z M933.5,111.9L933.5,111.9c1.1,0.7,2.1,1.8,3.4,1.7c2.1-0.2,2-0.3,2.9-2.4
		c1.6,2.5,3.9,0.4,6.2-0.5c0.6-0.2,1.4,2,2.1,1.9c1.1-0.2,2.3-0.5,3.4-0.7c-0.4-0.7-0.8-1.3-1.2-2c1.5,0.6,2,1.2,3.3,0.3
		c1.1-0.5,2-1.3,2.8-2.3c-3.1-1.2-6.1-2.3-9.2-3.5c-0.8-0.3-2.2-1.2-3-0.9c-1.5,0.7-0.8,1.7-0.5,3.4c-2.2-0.9-6.5-5.1-8.7-3.4
		c-2,1.6-3,2.1-3.7,4.6C931,109.7,932.7,110.9,933.5,111.9L933.5,111.9z M501.1,217.6L501.1,217.6c0.8-0.2,0.9-0.9,0.5-1.6
		c-0.4,0.2-0.7,0.4-1,0.7C501.4,216.9,500.8,217.2,501.1,217.6L501.1,217.6z M945.4,121.7L945.4,121.7c2,1.7,3.4,1.3,5.9,1.2
		c-0.6-2.3-0.7-2.4-2.6-3.5c-0.4-0.2-3.7-1.7-3.7-1.8c-0.2-1.6-1.4-3.1-3.3-1.9c-2.1,1.4,0.4,2.9,1.4,3.6c-1.2,0.8-2.4,1.7-3.7,2.5
		C941,121.6,944,120.6,945.4,121.7L945.4,121.7z M715.4,69.5L715.4,69.5c1.8-0.4,1.2-1.2,1.1-3.2c-0.7,0.1-2.3-0.2-2.9,0.2
		c-0.5,0.4-0.6,1.8-1.1,2.2c-1.5,0.9-3.1-1.4-4.3,0.9c0.4,0.5,0.8,0.9,1.3,1.3C711.4,70.4,713.4,69.9,715.4,69.5L715.4,69.5z
		 M699,72.4L699,72.4c1.1,0,1.7-0.3,2.4,0.6c1.2,1.5,4.3-0.7,5.4-1.9c1.3-1.4-1.5-3.5-3-3.1c-2.2,0.5-4.3,1.3-6.3,2.3
		C697.9,71.3,697.9,72.4,699,72.4z M818.4,90.1L818.4,90.1c1.6,2.2,5.8-0.6,7.8-1.3c0.6-0.2,1.7,1,2.6,0.9c1.7-0.3,3.5-0.6,5.2-0.9
		c1.1-0.2,2.1-0.7,2.9-1.5c0.7-0.5-0.7-2.6-1.5-2.7c-1.7-0.2-2-0.9-3.2-2.3c-0.5-0.6-2.8,0-3.5,0.1c0.5-0.4,1-0.9,1.5-1.3
		c-2.4-0.9-4.1-0.8-5.9,1.1c-1.7,1.9-3.1,4.1-4.4,6.3C819.4,89,818.9,89.5,818.4,90.1L818.4,90.1z M795.6,78.6
		c-0.4-0.3-2.7-1.7-2.5-2.1c0.3-0.7,1-3.3,1.7-3.5c0.6-0.2,3.3-0.5,3.5-1.1c0.5-2,0.3-2.5,2-3.1c1.5-0.5,3-0.9,4.6-1.4
		c1.3-0.4-0.1-1.8,2.1-1.7c2,0.1,5.1,3.4,6.7,4.6c-2.6,0.8-2.6,0.4-2.1,3.4c0.3,1.4,3,1.3,4.2,1.5c-0.8,0.9-1.6,1.7-2.4,2.6
		c2.4-0.9,3.7-2.1,6.1-0.8c1.1,0.6,0,2-0.4,3.1c-0.3,0.8,0.6,2.5,0.9,3.4c-2.6,0.8-3.7,1.3-6.2,0.4c-2.7-1-4.1-1-7-0.7
		c-2.4,0.2-3.3-2.3-4.8-4.3C800.8,77.4,797.4,78.5,795.6,78.6L795.6,78.6z M1060.4,137.4L1060.4,137.4c0.8-0.2,1.5,0.3,2.3,0.2
		c2.6-0.5,4.6-0.5,6.5-2.5c-1.1-1-1.9-2.1-3.3-2.2c-1.8-0.1-3.7-0.2-5.5-0.2c-1.3-0.1-3.2,1.3-4.4,1.8c-0.3,0.1,0.6,3.4,0.7,4
		C1058,138.1,1059.2,137.8,1060.4,137.4L1060.4,137.4z M568.7,146.8L568.7,146.8c-1,0.5-2.5,0.5-2,2.1c0.6-0.5,1.2-0.9,1.7-1.4
		C568.5,147.3,568.6,147.1,568.7,146.8L568.7,146.8z M560.9,153.5L560.9,153.5c0.7,0.2,1.5-0.2,1.7-0.9c-0.5-0.5-1-0.4-1.6,0.1
		C560.9,153,560.9,153.3,560.9,153.5L560.9,153.5z M565.2,148.2c1,0.9,1.3,1.8,0,2.6c-0.6-0.1-1.3-0.3-1.9-0.4
		C563.9,149.7,564.6,149,565.2,148.2L565.2,148.2z M510.4,201.9L510.4,201.9c0.7,0.2,0.9,0.1,1.5-0.3c-0.5,0-0.8-0.3-1.3-0.2
		l0.5-0.3c-1-0.8-1.2,0.3-1.3,0.7c0.2,0.2,0.3,0.4,0.4,0.6C510.3,202.3,510.3,202.1,510.4,201.9L510.4,201.9z M588.9,139.6
		c-1.3,0.1-2.6,0.6-3-1.3c0.8-0.2,1.7-0.1,2.5,0.1c1.2,0.3,1-0.2,2-0.8C590.3,138.6,589.6,138.9,588.9,139.6L588.9,139.6z
		 M502.1,216.6c-0.5-1,0.1-1.5,0.8-1.4C502.6,215.7,502.4,216.2,502.1,216.6z M565.6,151.4L565.6,151.4c-1.3,0-2.5-0.3-2.5,1.6
		C563.9,152.4,564.7,151.9,565.6,151.4z M504,217L504,217c0,0.5,0.2,1,0.5,1.3C504.9,217.7,504.7,217.2,504,217z M503.3,209.2
		L503.3,209.2c-0.2,0.1-0.3,0.2-0.5,0.2c0.2,0.1,0.5,0.1,0.7,0.2c-0.6,0.6-0.9,1.3-1.1,2.1c-0.1,0.4-1.1,0.7-1.5,1.3
		c1.3,0.3,1.3,0.8,0.1,1.1c0.8,0.8,2.8-0.1,1.1-1.1c1.1,0.7,1.6-0.3,2.4-1.1c0.1,0.1,0.2,0.3,0.3,0.4c-1.2,0.7-1.4,2-1.7,3.4
		c-0.2,0.9,0.3,0.9-0.1,2c-0.2,0.6-0.7,0.9-0.2,1.3c1,0.9,0.8-1.2,0.9-1.9c0.1-1,0.1-2.2,1.3-2.6c-1.4,1.2-0.2,2.4,0.7,0.3
		c0.2,0.3,0.3,0.7,0.4,1.1c-0.8,0.1-0.7,0.4-0.5,1.2c0.3,1.1,0.5,0.7,0,2.1c-0.4,1.4-1.8,1.5-0.2,2.8c0-0.3,0-0.7-0.1-1
		c0.7,0.3,1.9,1.2,1.5-0.1c1.1,0.8,2.6-0.7,4.2-0.5c-2.8,0.7-1.3,5,0.4,3.7c-0.8,1.1-0.7,3.3,0.3,4l-0.3,0.1
		c-0.5-0.7-0.3-0.2-0.8-0.5c0.1,0.2,0.1,0.5,0.2,0.7c-1-0.2-1.9-0.6-2.8,0.1c-0.2-0.6-0.8-1-1.4-0.8c-0.1,0-0.2,0-0.2,0.1
		c1.2,1,0.6,1.9-0.5,2.6c0.7-0.1,1.4-0.3,2-0.4c-0.2,1.4,0.6,1.7-0.3,3c-0.5,0.7-2.5,1.1-3.3,1.4c0.1,0.3,0.2,0.9,0.1,0.8
		c0.9,1.5,2.1-0.5,3.4,0.3c-0.2,0.1-0.3,0.3-0.5,0.4c0.5,0,2,0.9,2.2,0.8c1-0.3,2-0.7,3-1c-0.7,0.6-1.1,1.3-1.4,2.2
		c-1.9-0.3-3.8-1.1-4.5,1.3c-0.3,1.3-2.4,2.3-3.3,3.4c1.7,1.2,3.5-2.3,5.8-0.6c1.3-3.3,1.8-0.6,4.2-1.8c0.7-0.4,2.2-1.5,2.9-1.5
		c1,0.1,1.3,1.2,2.4,0.9c1.9-0.5,3.3-0.4,5.3-1.3c2.6-1.1-1.4-1.9-2.2-2c2-1.5,3.4-2.2,3.7-4.9c0.3-2.8-4.4-0.9-4.8-1.4
		c1.8-1.3-0.9-3.6-2.3-3.6c0.8-0.4,1.7-0.1,2.1,0.7c-0.6-3.5-3.5-3.8-4.4-6.7c-1.1-3.7-2.7-4-6-4.5c0.5-0.7,1.3-1.1,2.2-0.9
		c-1-2.1,3.7-4.7,2.5-6.6c-0.8-1.2-6.3-0.6-6.9,0.7l-0.3-0.2c0.4-0.4,0.6-1,1.1-1.3c-0.5-0.2-0.9-0.3-1.4-0.4c0.3,0,0.7,0,1,0
		c0.3-1.3,2.8-1.6,3.1-3.6c-1.5-0.2-3,0.1-4.3,0.8c-0.6-0.3,0.1-0.4-0.9,0c-0.3-1.4-1.4-0.2-0.9,0.9c-0.3,0.1-0.6,0.1-0.9,0.2
		c-0.1,0.4-0.2,0.6-0.3,0.8c0.4,0.4,0.7,0.9,1.1,1.2c-0.6-0.4-1.4-0.5-2.1-0.2c0.3,0.5,0.3,1.2,0.6,1.6c-0.3-0.1-0.6-0.1-0.8-0.2
		C502.3,209,502.7,209,503.3,209.2L503.3,209.2z M506.9,223c0.3,0.6,0,1.3-0.6,1.6c0,0,0,0,0,0c-0.2,0-0.4,0-0.6,0
		C505.8,223.9,506.2,223.3,506.9,223L506.9,223z M570.3,150.3L570.3,150.3c1.1-1.2,2.3-2.4,3.4-3.7c-0.8,0.7-1.6,1.3-2.4,2
		C570.4,148.6,570,149.3,570.3,150.3z M576.3,143.1L576.3,143.1c-0.6,0.7-1.3,1.3-2,1.8c0.7,0,1.4,0.1,2.1,0.1
		C577,144.1,577.8,143.6,576.3,143.1L576.3,143.1z M572.3,145.2c1-0.3,1.6-0.7,2.2,0.5c-0.7,0.6-3.9,3.8-3.7,1.4
		C570.9,145.5,570.9,145.7,572.3,145.2L572.3,145.2z M579.2,142.5c-0.2,0.6-0.8,1-1.5,1c-0.4-0.1-0.7-0.3-1-0.5
		C577.1,141.8,578.3,141.9,579.2,142.5L579.2,142.5z M568.9,148.9c1-0.6,1.2,1,1,1.8c-0.8-0.3-1.7,0-2,0.8c-0.8,1.1-1.2,0.7-2.4,0.4
		c0.7-0.8,0.6-0.4,0.7-1.5c0.3,0,0.5,0,0.8,0c-0.3-1,0.1-1.8,1.1-1.8c-0.1,0.8-0.3,1.5-0.4,2.2C568.7,150.3,568.2,149.3,568.9,148.9
		L568.9,148.9z M566.2,153.3L566.2,153.3c0,1.4-0.8,1.7-1.9,1.9c0.4,0.3,0.3,0.5,0.8,0.7c-0.2,0.4-0.4,0.7-0.6,1.1
		C565.7,155.7,566.4,155.2,566.2,153.3z M567.5,152.8L567.5,152.8c-0.4-0.1-0.7-0.1-1.1-0.2c0,0.5,0,1,0.2,1.6
		c0.9-1,1.9-1.9,2.8-2.9C568.5,151.2,567.9,151.8,567.5,152.8L567.5,152.8z M581.4,142.9c-0.9,0.4-1.7,0.8-2.6,1.2
		c-0.6,0.2-1.2,0.4-1.8,0.6C577.9,143.6,580.1,142.1,581.4,142.9z M582.6,141.2L582.6,141.2c-0.5-0.1-0.9-0.1-1.4,0.1
		c0.1,0.3,0.2,0.6,0.3,0.9C582.3,142.8,582.7,142.3,582.6,141.2L582.6,141.2z M731.6,121L731.6,121c-1.9,0.2-1.4,1-1.6,3.1
		c1.7-0.3,3.4-0.6,5.1-0.9C734.6,121.7,733.1,120.8,731.6,121z M909.2,309.2L909.2,309.2c0.1,0.8,0.2,1.6,0.3,2.4
		c1.9,0.2,0.4-2,1.8-1.8c1.7,0.2,0.8,2.4,0.4,3c-0.9,1.4-1.1,5.9,1.3,4.2c1.9-1.4,2.6-4,3.7-6.2c0.3-0.6-0.8-2-1-2.4
		c-0.7-1.1-1.3,0.2-2.2-1.2c1.5-1.4,3.2,0.8,4-2c0.8,1.3,1.4,0.8,2.4,0.2c0.5-0.3,2.2-0.7,2.4-0.9c1-1.3,3.2-0.4,4.7-0.3
		c-2.2,1.9-0.9,3.2,0.8,4.7c0.9-1.3,1.7-3.5,3.5-3.2c-1-0.9-1.4-1.9-0.1-2.8c1.4,2.3,4.3,1.3,5.7-0.7c0.3,0.6,0.6,1.3,0.9,1.9
		c0.7-1.2,1.5-2.2,2.5-3.2c-0.2,0.7-0.3,1.4-0.5,2.1c1.5-0.5,1.7-1.8,3-2.5c0.2-0.1-0.3-3.1-0.1-3.9c0.4-1.7,1-1.7,1-3.7
		c0-1.3-0.3-3.4,1.5-2.4c0-1.3-0.4-2.2,0.7-2.9c1.1-0.7,0.7-2.1,0.8-3.5c0-1-1.1-2.4-1.5-3.2c-0.5-0.9,0-1.8,0.2-2.8
		c-1.6-0.8-2.5,0.4-2.1,2.1c-1-3.6-3.1,1.1-3.5,2.5c-0.3,1.1,1,1.6,0.9,2.2c-0.5,1.5-0.9,2.9-1.4,4.4c-0.6,2-1.9,3.7-3.7,4.8
		c-1,0.6-2.1,1-3.2,1.2c-1.1,0,0.2-2,0.5-2.3c-1.6,0.6-2.2,0.4-2.2,2.2c0,1-1.5,2.2-2.1,2.9c-0.7,0.9,0.3,1.7-0.9,2.2
		c-1.7,0.8-1-0.7-2.1-0.6c-2,0.2-5.7-0.3-6.9,1.5c-1.4,2.1-3.3,3.4-5.5,3.4C914,307.1,910.7,308.1,909.2,309.2L909.2,309.2z
		 M906.2,414.6L906.2,414.6c-1.1,0.8-2.1,1.7-2.9,2.8c-1,1.6-0.3,1.9-0.1,3.2c0.2,1.2,0.3,2.4,0.2,3.6c-0.1,0.7,1.7,1.8,2.2,2.2
		c-0.2-1.5-0.8-4.7,1.7-3.7c-0.4-0.3-2.9-2-1.6-2.3c0.7-0.1,1.2-0.7,1.1-1.4c-0.1-0.6-0.5-1.1-1.1-1.1c0.2-0.5,0.5-0.9,0.8-1.4
		C906.4,415.9,906.3,415.3,906.2,414.6L906.2,414.6z M973.3,503.3L973.3,503.3c-1.8-1.6,0.6-3.7-2.1-4.7c-0.3-0.1-1.7,1.8-2.1,0.7
		c-0.4-1.3-0.8-2.6-1.2-3.9c-0.7-2.4-0.7-3.7-2.7-4.9c-0.8-0.5-6.2-2.9-6.2-3.8c0-2.3,0.6-4.8-0.9-6.5c-2-2.4-1.9-3.3-2.1-6.6
		c-0.1-2.1-2.7-3.2-4.1-2c-0.8-4.4-2.1-8.7-3.9-12.8c-2.2,0.5-2.4,4.6-3,6.7c-0.6,2.2-0.1,4.8,0,7.1c0.1,2.7-1.5,11.4-5.2,10
		c-1.3-0.5-2.5-2.8-3.9-3.7c-2.5-1.5-5-3-7.5-4.5c-2.3-1.4-1.3-2.2-0.7-5c0.5-2.3,1.8-3.4,3.2-5.2c-2.4-2.3-2.9-2.4-6.1-2.7
		c-2.4-0.4-4.9-0.5-7.3-0.6c0.1,1.1,0.2,2.3,0.3,3.4c-2.7-0.4-5.1-1.9-6.9,0.7c-1.7,2.5-2.1,4.8-2.8,7.8c-2.3-1.2-4.7-2.5-7-3.7
		c-0.8-0.5-3.7,2.8-4.4,3.4c-3.8,3.2-8.9,6-10.8,11c-0.9,2.5-1,4.6-3.4,5.2c-3.2,0.7-6.5,1.5-9.7,2.2c-2.2,0.5-3.4,1.5-5.4,2.9
		c-2.4,1.7-2.9,2.4-4,5.4c-0.4-1-0.8-2-1.2-3c-1.6,4-2.6,7.3-1,11.3c0.9,2.4,0.7,2.8-0.1,5.3c-0.6,1.8,0.6,3,1.3,4.7
		c1.9,3.9,3.1,8,3.8,12.3c0.2,1.7,1.6,6,1.1,7.5c-0.2,0.5-3.8,2.6-2.1,3.9c1.5,1.1,3.1,3.2,5,3.2c1.8,0,4,0.6,5.4-0.8
		c2.1-2,2.6-2.8,5.2-3c1.9-0.2,3.8-0.5,5.7-0.5c1.4,0,2.9-0.1,4.3-0.1c0.4,0,1.1-2.1,1.3-2.5c0.7-1.6,3.6-2.2,5.1-2.9
		c1.6-0.8,3.9,0.4,5.3-0.4c1.1-0.7,3.4-2.7,4.6-2.6c4.5,0.6,8.5,1.1,12.8,2.7c2.7,1,2.9,1.5,4.4,4.3c0.9,1.8,2,3.4,3.2,5.1
		c2.4-2.5,4.5-5.3,6.2-8.3c1.1,3.4-1.1,6.1-2.8,8.9c2.8,0.6,2.7-1,4-3.7c0.2,1.7-0.3,6,1.4,6c1.6,0,2.7,3.3,3,4.7
		c1,4.8,4.5,6.2,8.6,6.8c2.6,0.4,3,0.8,5.1-1c2.4-2,2.2-1.1,4.2,1.3c1,1.1,3.5,0.2,4.4-0.7c2.1-2.1,2.4-2.3,5.3-2.4
		c4.8-0.2,4.3-6.6,5.1-10.7c0.6-3.5,4.5-6.1,5.4-9.6c1-4.1,3.2-9.2,3.3-13.4c0.1-4.1-1.3-8.8-1.9-12.8
		C977.1,506.8,975.2,505.1,973.3,503.3L973.3,503.3z M898.3,434.2L898.3,434.2c-0.9,2.7,3.5,1.5,4,1.3
		C902.4,433.9,898.9,432.4,898.3,434.2z M913.9,460.9c1.6-0.4,1.2,1.1,0.2,1.7c-1,0.7-2.3,0-3.6,0
		C910.6,459.8,912.4,461.9,913.9,460.9L913.9,460.9z M979.3,439.5L979.3,439.5c0.7-1.6,1-1.7,0.1-3.2c-0.1-0.2-0.7,0.2-1-0.2
		c-0.2-0.4-0.4-0.8-0.8-1.2c-1.5-1.1-3.1-2.1-4.7-3.1c-0.6,1.9,6.4,2.8,5.7,6.2C978.7,438.6,979,439.1,979.3,439.5L979.3,439.5z
		 M964,566.1L964,566.1c-0.9,0.4-3.7,2.1-4.6,1.7c-1.6-0.7-3.3-1.4-4.9-2.2c-0.3,2.7,0,5.4,0.9,7.9c1.3,3,2.7,3.6,5.4,4.1
		C964.2,578.2,967.3,567.1,964,566.1L964,566.1z M968.9,441.8c1.1,0,1.9-1.8,2.1-1.3c-1.3,3.2,4-0.7,4.2-0.7c0-0.8-0.4-3.8,1.2-2.7
		c1.2,0.8,2.3,2.6,0,3.1c1.6,1.7-1,1.5-1.2,1.9c-0.6,1.4-2.3,1.9-3.6,2.3c-1.8,0.4-5.5-0.6-6.2-2.5
		C966.5,441.5,967.7,441.8,968.9,441.8L968.9,441.8z M957.8,441.4c1.5,1.6,6.5,0.4,6.1,4.2c-0.9,0.1-1.8,0.2-2.7,0.3
		c0.2,0.7,0.5,2.1,1,2.5c0.6,0.4,1.8,0.9,2.1,1.5c1.3,2.7,1.2,3.4,4,3.5c-0.8,1.8,0.9,1.6,2,1.9c-1.2,1,1.3,2.7,2,3.5
		c-1,0.3-3-1.2-4.3-1.4c-1.8-0.3-3.6-0.2-4.9-1.6c-1.7-1.8-3.4-3.6-5.1-5.4c-0.9-0.9-4.5-0.7-5.7-0.9c-1-0.2-1.5,3.2-2.6,3.9
		c-1.9,1.3-4,0.7-6.2,0.6c-1.3-0.1-2.2-3.4-3.3-3.3c-2.1,0.2-4.3,0.4-6.4,0.6c0.4-3.1,0.6-2.8,3.4-3.6c-0.8-1.9-1.6-3.8-2.4-5.7
		c-0.5-1.1-2.9-1.6-3.9-2c-2.4-1-4.7-2-7.1-3c-2-0.9-2-0.8-2.4-3.2c-0.8,1-1.7,2-2.5,3.1c-0.9-1.6-1.9-3.2-2.8-4.8
		c2.3-0.5,3.5-1,5.7-0.2c0.1-0.5,0.2-0.9,0.1-1.4c-1.8,0.1-3.8,0.6-5.5-0.3c-0.6-0.3-0.1-1.9-0.6-2c-1-0.1-1.9-0.3-2.9-0.4
		c1.5-2.9,4.3-3.5,7-2.9c1.8,0.4,2.3,0.1,2.5,2c0.2,1.7,0.7,3.3,1.3,4.9c0.6,1.6,1.3,1.6,2.8,2.3c0.5,0.2,2.3-2.8,2.7-3.3
		c1.1-1.5,3.8-2.8,5.5-2.1c3.4,1.3,6.9,2.6,10.3,3.9c2.1,0.8,4.8,1.4,6.8,2.6c1.3,0.8,2.7,1.7,4,2.5
		C957.4,438.7,956.8,440.4,957.8,441.4L957.8,441.4z M946.9,238.7L946.9,238.7c0,2.1,0.2,4.1-0.7,5.9c-1.2,2.4-0.2,2.5,0.2,4.9
		c0.4,1,0.2,2.1-0.6,2.9c-0.4,0.7,0.2,1.7,0.2,2.5c0,2.4-0.4,2.9,0.5,5.2c0.3-1.3,0.3-3.3,1.8-3.6c1.6-0.3,2.3,1.7,2.2,3
		c1.5-1.5-0.3-3.9-1.2-5.4c-1.1-1.8-1.7-2.2-1.1-4.3c0.9-2.8,0.6-3.6,3.3-4.1c1.8-0.3,1.6,2.7,3.3,2.7c-1.3-2.4-2.2-4.9-2.7-7.6
		c-0.3-1.3-0.7-2.7-1-4c-0.2-0.9-1.3-1.6-1.4-2.5c-0.5-2.9,1.8-4.4,0.3-7.3c-0.8-1.5,0.2-5.8-2.6-3.7c1,1,1.7,2.7,0.6,3.8
		c-0.5,0.4-0.6-0.5-1.5,0.2c-0.9,0.7-0.6,0.9-0.3,2.1c0.4,1.4-0.5,3.8-0.7,5.2C945.4,236.2,948.4,237,946.9,238.7L946.9,238.7z
		 M892.5,391.8L892.5,391.8c1.4,0.3,2.3-1.9,0.5-2.1C892.5,390.2,890.8,391.4,892.5,391.8z M890.4,392.2c-0.3-2,1.3-4.3,1.9-6.2
		c0.2-0.1,0.3-0.2,0.5-0.3c-0.2,0.9,0.1,2.6-0.5,3.2C891.3,389.8,890.6,390.9,890.4,392.2z M895.4,385.6c-0.1,1.6,1.4,3.3,0.6,4.5
		c-0.2-0.5-0.4-0.9-0.6-1.3c0.1,0.5,0,1,0.1,1.5c-1.3-0.7-0.4-4-1.7-2.9c-0.4-0.7-0.6-1.5-0.5-2.3
		C893.7,385.7,894.6,386,895.4,385.6L895.4,385.6z M890.9,382.8L890.9,382.8c0.4,0.7,0.9,1.3,1.6,1.8c0.1-0.6,0.1-1.2,0.1-1.9
		c-1.2,0.1-0.9-1.4-2.6-1.2c0.4,0.8,0.3,1.8-0.4,2.4C890,383.5,890.5,383.1,890.9,382.8z M893.2,381.7L893.2,381.7
		c0,1.2,0.9,1.6,1.8,2.2c0.9,0.8-0.1,0.9,0.5,1.6c2,2.7,1.8-0.9,1.5-2.6C896.4,381.1,894.6,381.7,893.2,381.7L893.2,381.7z
		 M886,384.3c0.5-0.1,1-0.2,1.6-0.1c1.9,0.8,2.5,1,3.6,2.8c0.5,0.8-1,3.2-1,4.4c0,0.8,0.4,2.1-0.4,2.3c-0.9,0.2-0.6-0.9-1.4-1.2
		c-1.9-0.9,0.1-2.9,1-4C885.8,390.1,886.2,387.7,886,384.3L886,384.3z M878.2,427.7L878.2,427.7c-0.4,1.3-0.1,2.1-0.7,3.5
		c-0.9,1.9-1.4,2.1-0.2,3.8c0.6,0.9,2.2-0.3,1.9,1.9c-0.1,0.9-1.2,4.4-0.7,5.1c0.4,0.7,2.8,1,3.2,0.2c0.2-0.4-0.5-1.5-0.4-2
		c0-0.6,0.6-1.1,0.6-1.6c0.1-1.1-0.1-2.6,0-3.8s-1.6-2.1,0.9-2.4c1.3-0.1,0.3,2.4,0.5,3c0.5,1.4,2.1,1.2,1.7,2.7
		c-0.4,1.5,0.6,1.8,1.7,1.6c-0.5,0.1,2.5-2.4,2.1-1.6c0.9-2-1.2-1-1.8-2.5c-0.2-0.4,0.9-1.1,0.6-1.6c-0.4-0.7-0.7-1.4-1.1-2.1
		c-0.6-1.2-1.2-1.1-2-2c2.7,1,3.7-4.5,6.2-2.9c0.7-2.4-1.4-1-2.3-0.9c-1.1,0-1.2,0.5-2.1,0.8c-1.1,0.3-0.5-1-1.6,0.2
		c-2.6,2.9-5.4-2.2-3.4-4.6c1-1.2,2.2,0.2,3.5,0.1c1.5-0.1,3.5-0.8,4.8,0c3.4,2,5.3-1.8,6.3-4.7c-1.4,0-2.5,2.2-3.8,3
		c-0.7,0.4-1.9-0.4-2.6-0.4c-0.9-0.1-0.8,0.6-1.8,0.2c-1.4-0.5-3.9-2-5.2-1.1c-1.8,1.1-2.2,2.1-3.2,4.1
		C880.6,425.3,878.8,426.1,878.2,427.7L878.2,427.7z M881.4,378.7L881.4,378.7c0.9,1.5,1.7,3,2.6,4.5c1.7-2.1,1.5-3.2-0.5-4.5
		C882.8,378.6,882.1,378.6,881.4,378.7L881.4,378.7z M864.5,450.4L864.5,450.4c0,1.7,1.2,3.2,2.4,1.5S865.6,450,864.5,450.4z
		 M941.8,269.8c0.9,0.3,1.8,0.5,2.8,0.8c0.4-0.7,0.5-1.6,0.3-2.4c-0.1-1,1.5-1.9,1.2-2.7c-0.2-0.8-1-6.2,0.8-3.7
		c1.4,1.9,2.4,3.8,4.4,4.8c2.9,1.5,3,2.1,5.2-0.3c0.5,1.4-2,4.2,1.3,4.1c-1.1,1.3-2.7,2-4.4,1.7c-0.9,0.2-1.6,0.6-2.2,1.3
		c-0.3,0.8-0.6,1.7-0.8,2.6c-1,0.5-3.4-1.6-4.1-2.3c-0.5-0.5-1.8,0.3-2.4,0.6c-0.5,0.3-1.5-0.7-2.5-0.4c-0.3,1.9,1.7,1.2,2.3,2.3
		c0.5,0.9-0.5,0.8-1,0.7c-0.6-0.2-1.2,1.4-1.6,1.2c-0.7-1.2-1.1-2.6-1.4-4c0.3-1.2,0.5-1.2,1.5-1.8
		C941.7,271.9,941.7,270.5,941.8,269.8L941.8,269.8z M549.4,218L549.4,218c0.1,0.8,1.4,2.5,2.2,2.3c0.5-0.1,0.9-0.7,0.7-1.3
		c-0.1-0.4-0.4-0.7-0.8-0.7C551.3,217.2,550.3,217.5,549.4,218L549.4,218z M623.9,300.1L623.9,300.1c-1,0.4-2.4,1.5-3.5,1.4
		c-0.6-0.1-2.9-0.6-3.4,0.4c-1.5,3,4.7,1.3,5.4,1.1C621.6,301.5,623,300.9,623.9,300.1L623.9,300.1z M599,302.5L599,302.5
		c0.1-1.1-2.2-1.5-3.2-1.4c-2,0.3-2.6-0.1-4.4-1.2c-0.3,0.5-0.6,1-0.7,1.6C593.4,302.4,596.2,302.7,599,302.5L599,302.5z
		 M553.5,217.4L553.5,217.4c-0.3,0.8,0,2.3,1,2.3c1.3-0.1,1,1,1.3,2.2c0.2-1.4,0.1-3,1.7-3.1c-0.4-0.2-0.6-0.7-0.9-1
		c4.1-0.9-2.6-4.6-0.6-0.7c-0.9-0.1-1.2-0.5-0.7-1.3c-0.3-0.1-0.7-0.1-1,0C554.4,216.5,554.1,217.2,553.5,217.4L553.5,217.4z
		 M590.3,203.8L590.3,203.8c-2.1-0.6-2.9-0.5-4.9,0.1c0.8,0.6,1.1,1.8,0.7,2.7C587,205.2,588.9,204.7,590.3,203.8L590.3,203.8z
		 M545.8,282.3L545.8,282.3c0.1,0.4-0.7,1.3-0.8,1.8c0,0.2,0.7,0.7,0.7,0.9c-0.2,1.4-1.4,1.5-0.3,2.6c0.9,0.8,1.8,1,1.9-0.5
		c0.1-0.8,1.3-0.1,1.5-1.5c0.2-1.5,0.4-3.1,0.6-4.6c0.4-3.1-3.2-1.3-4-0.7c-0.3-0.1-0.6-0.2-0.9-0.3
		C543.9,281.6,545.6,281.1,545.8,282.3L545.8,282.3z M1088.7,177.5L1088.7,177.5c-0.6,0-3.3-0.6-3.8-0.2c-0.7,0.6,0,2,0.5,2.4
		c1.7,1.3,3.9-0.6,5,0.7c1.2,1.6,3.2,2.2,4.1-0.4C1092.8,179.2,1090.6,177.6,1088.7,177.5L1088.7,177.5z M574.4,211.3L574.4,211.3
		c0.6-0.9,1.5-1.6,2.5-2c-1-1.1-0.1-1.7,0.6-2.7C574.5,205.9,574.2,209,574.4,211.3z M580.6,196.5L580.6,196.5
		c-0.1-0.3-0.1-0.7-0.2-1h0.5C580.7,193.5,578.1,195,580.6,196.5L580.6,196.5z M545.7,274.9L545.7,274.9c-1.1,0.9,0.9,2.9,1.9,2.8
		c0.7-1.9,1-4,0.7-6c-0.9,0.2-0.1,0.9-0.6,1.6C547.1,273.8,546.4,274.4,545.7,274.9L545.7,274.9z M986.3,443.1L986.3,443.1
		c-0.8-0.4-0.7-1.7-1.9-2.1c-0.1,0.9,0.1,1.7,0.6,2.4c0.5,0.6,0.2,1.4,0.6,1.8c0.7,0.8,3.4,1.6,2.5-0.4
		C987.7,444.1,987.1,443.5,986.3,443.1L986.3,443.1z M921.7,308.4c-1.4,0.6-1.7,3.7-3.6,2.4c-0.9-2.9,0-2.3,1.1-4.7
		c0.8,0.6,5.6-2.6,5.5,1.1c0,0.5-1.2,1.6-1.5,2C922.8,309.6,922.1,308.2,921.7,308.4L921.7,308.4z M904,433.9L904,433.9
		c-1.4,1.8,1.4,1.8,2.1,1.7c0.6-0.1,0.3-1.3,0.9-1.1c0.6,0.2,1.4,0.7,2,0.6c1.8-0.5,2.3,0.2,3.9,1.3c0.7-3.2-2.8-3.5-4.7-4
		C906.7,432.7,905,432.6,904,433.9z M1040.1,568.7L1040.1,568.7c0-1.2-0.3-2.4-0.9-3.4c-1.4,0.8-2,0.8-2.3,2.5
		c-0.4,1.8-0.9,1-1.8,2.2c-0.6,0.9-0.5,2.5-1.1,3.4c-0.8,0.9-1.7,1.7-2.7,2.4c-0.8,0.8-1.7,1.6-2.7,2.1c-0.8,0.3-2.5,0.8-3.1,1.5
		c-1.7,2.3-3.4,4.5-5.1,6.8c-1.7,2.3,3.3,1.7,4,2.5c1,1.2,4.7,2.4,5.7,0.7c1.2-1.9,3.3-4.2,3.9-6.4c0.8-3.1,1.9-3.5,4.3-5.3
		c0.1,0.7,0.7,1.2,1.4,1.3c-0.9-1.9-1.1-2.1,0.2-3.7s2.5-3.2,3.7-4.8c-0.4-1.2-0.7-2.4-1.1-3.6
		C1041.6,567.5,1040.9,568.1,1040.1,568.7L1040.1,568.7z M1024.2,590.1c2.7,2.1-0.1,1.6-1.1,2.5
		C1023.9,591.6,1023.3,590.4,1024.2,590.1z M1054.9,553.9c2.4,0.3,0.5,3.9-0.5,4.9c-0.3,0.3,0.4,1.6-0.5,1.1
		c-0.8-0.4-2.4-0.2-2.4,1.1c0.1,2.2-1.8,4.6-2.7,6.6c-1.1,2.3-2.9,1.5-4.4,0.5c0.8-0.9,2.9-3.1,2-4.7c-0.3-0.5-1.8-0.6-2.3-0.8
		c-0.8-0.6-1.5-1.2-2.1-1.9c1.8-1.4,2.1-1.9,2.9-4.1c0.6-1.6-0.5-3.2,0-4.9c-1.6,0.5-3-4.7-3.7-6.1c-0.2,0.2-0.5,0.4-0.7,0.6
		c-0.6-1.3-1.3-2.7-1.9-4c1.2,0.3,1.8,1.6,3.1,2.1c2.5,1,1.2,0.7,2,3c0.3,0.6,0.7,1.2,1.2,1.7c0.4,0.6-0.1,1.6,0.2,2.3
		c1.1,2.2,2.2,0.8,2.1-1c1.7,0.8,0.6,4,2.3,4.4C1052.1,555.3,1052.5,555.5,1054.9,553.9L1054.9,553.9z M527.3,284.9L527.3,284.9
		c0.6,0.5,1.2,1,1.8,1.4c0.5-0.5,1.1-0.9,1.6-1.3C529.7,283,529,284,527.3,284.9z M1083.5,167.5c1.1,0.2,3.1,1,4.2,0.7
		c1.2-0.4,2.8-2.3,3.8-3.1c-1.7-1.4-3.7-3.8-5.7-4.5c-2.5-0.9-5.2-1.3-7.8-1.2c0.4,1.3,0.7,2.6,1.1,3.9c-3.2,0-2.8-1-4-4.3
		c-1.1-2.9-1.4-3-3.9-4.4c-4.1-2.3-8.1-4.5-12.3-6.5c-3.6-1.8-7.5-4.6-11.5-4.9c-5.1-0.4-10.2-0.8-15.3-1.2c0.3,2.4,0.7,4.8,1,7.1
		c-1.1,0.1-3.2,0.8-4.3,0.4c-1.4-0.6-3-3-4.1-4c-1.5-1.5-1.3-1.5-3.1-0.2c-1.1,0.8-2.9,0-4.2-0.2c-3.1-0.6-6.3-0.5-9.5,0.2
		c-3.1,0.5-5.4-0.6-8.4-1.6c0.6-1.4,0.7-3,0.1-4.4c-0.6-1.8-1.4-1.6-3.1-2.1c-2.8-0.8-5.7-2.2-8.6-1.7c-3.6,0.6-7.1,1.2-10.7,1.8
		c-1.6,0.3-5.2-5.6-6.7-6.5c-2.6-1.5-6.5-1.7-9.3-2.4c-2.7-0.9-5.4-1.6-8.1-2.1c-3.6-0.5-7.2-0.9-10.8-1.4c-0.8-0.1-2.5,3.1-3,3.8
		c-0.7,0.9,1.1,2.9,1.6,3.9c-1.9,0.8-3.7,1.5-5.6,2.3c-1.2,0.5-3.6-1.5-4.7-2c-1.5-0.7-3.3,0.4-4.9,0.9c-2.4,0.8-2.8,0.1-5-1.3
		c-2.1-1.4-1.8-1.1-3.4,1c-0.6,0.7-3,4.8-3.8,4.4c-1.8-1-3.6-2.1-5.4-3.1c-0.5-0.3-0.7-4.8-0.7-5.6c0-1,1.3-4.7,0.7-5.3
		c-1-1.1-2.8-4.2-4.1-4.6s-4.2,0.8-5.6,1.1c-1.9,0.2-3.8,0.3-5.7,0.1c-2.7,0-2.4-0.1-2.8,3c-0.2,1.5-3.5,0.9-4.6,1
		c-2,0.1-3.9,0.2-5.9,0.3c-1.3,0.1-3.5-1.6-4.7-2.2c0.9-0.6,1.9-1.1,2.8-1.7c-4.9-0.5-10-1.6-14.9-1.1c-3.8,0.4-4.5,0.5-7.7-1.8
		c-2.1-1.5-4.8-0.1-6.6,1.4c1.5,0.2,3,0.4,4.4,0.7c-5.8,1.6-11.5,3.3-17.3,4.9c8.3-5.1,16.6-10.2,25-15.4c0.6-0.4,1.1-2.3,1.4-3
		c0.2-0.5-1.5-2.2-1.8-2.7c-1.3-1.8-4.3-3-6-4.2s-4-0.8-6-0.8c-1.3,0-2.7-0.1-4-0.2c-0.6,0-0.4,2.6-0.4,3.2
		c-1.7-0.1-3.4-0.2-5.2-0.3c1.3-1.1,2.5-2.2,3.8-3.4c-3.1-0.4-6.2-0.9-9.3-1.3c1.9-0.6,3.9-1.2,5.9-1.8c-1.8-2.7-6.3-2.7-8.8-1.4
		c-2.1,1.1-4.1,2.1-6.2,3.2c-1.3,0.7-0.6,3.4-2.2,4c-7,2.7-14.1,3.6-21.5,4.9c-3.9,0.7-8.4,0.9-12.2,2.3c-1.8,0.9-3.5,1.9-5.1,3
		c-2.3,1.4-2.1,1.4-2.2,4.4c0,1.5,0.6,3.1-1,3.3c-2.3,0.2-4.5,0.5-6.8,0.7c-4,0.4-8,0.8-12,1.2c0.2,1.4,0.5,6.7,1.7,6.9
		c0.9,0.2,3.5,0.1,4.2,0.7s1.1,2.9,1.4,3.9c-1.1,0.2-2.5,0.8-3.4,0.1c-1-0.7-2-1.4-3.1-1.9c-3.6-1.3-5.1-2.2-8.7-1.1
		c-1.2,0.4-6.4,2.6-3.4,4c2.6,1.2,5.2,2.3,7.8,3.2c-1.9-0.1-9.2-0.2-10.2-1.9c-1.5-2.6-1.6-2.6-0.2-5.2c0.6-1.1-1.4-3.9-2.4-3.6
		c0.4,0.8,1.5,4,0.2,4.6c-1.9,0.8-3.5,1.1-4.7,2.8c-0.9,1.4,1.7,3.8,2.5,5c1,1.5-0.7,3.6-1.5,5.1c-0.6,1.2,0.6,3.5,1,4.8
		c0.1,0.4,4.8-0.6,5.4-0.7c2.3-0.3,2.5-0.3,4.5,1.1c1.5,1.1,1.3,2.8,1.5,4.7c-1.2-1.4-2.4-2.8-3.6-4.2c-0.7-0.8-3.3,0.6-4.2,0.9
		c-4.8,1.5,1,4.9-1.2,7.2c-2,2.1-5.1,5.9-7.8,6.7c-3.4,1.1-6.3-0.7-8.9-2.8c1,0.1,3.8,1.1,4.6,0.5c2-1.2,4-2.4,6-3.7
		c1.2-0.7,1.8-3.7,2.3-5c1-2.3-1.1-2.5-2.9-3.8c-1.5-1,1.6-9.6,0.6-11.5c-0.5-1.1-2.4-3.7-2-4.8c0.8-2.2,1.6-4.4,2.4-6.5
		c-2.1-0.2-10.9-2.3-11.6-0.3c-0.5,1.6-1.1,5.2-2.3,6.2c-1.9,1.5-3.7,3-5.6,4.4c0.8,0.5,3.8,1.7,3.3,2.7c-0.5,1.3-2.5,3.9-1.3,4.9
		c1.9,1.4,3.8,2.8,5.7,4.2c0.8,0.6-0.2,3.8-0.3,4.8c-1.6-1.2-3.5-3.3-5.3-4c-2.6-1-5.1-2-7.7-3.1c-3.8-1.5-9.1-2.1-12.9-0.5
		c1.6,2.1,2.7,2.3,1,4.5c-1.8,2.3-1.6,2.2-4.3,1.4c0.4-0.6,0.7-1.3,1.1-1.9c-2.4-0.5-3-0.6-5.2,0.4c-1.9,0.9-3.2,0.6-5.3,0.4
		c-1.4-0.2-2.3,2.9-3.9,2.5c-2.5-0.6-2.5-0.6-3.3-3.3c-2.9,1.3-5.7,2.6-8.6,3.9c-1.9,0.9-3.8,1.7-5.6,2.6c-0.7,0.3-2.5,0.7-2.9,1.3
		c-1.1,1.4,0.3,2.9-1.6,3.1c-1.6,0.2-3.2,1.1-4.3-0.3c-1-1.3-2.7-2.3-1.8-3.9c0.5-1,3.6-0.7,4.6-0.8c-1-1.3-2-3.7-3.6-3.9
		c-2.1-0.3-4.2-0.5-6.2-0.8c0.4,0.5,2.2,2.2,2.1,2.7c-0.4,1.6-0.8,3.1-1.1,4.7c0.1-0.3,1.8,2.4,1.9,2.6c0.4,0.9-0.5,2.8-0.7,3.7
		c-1.7-0.5-3.4-1-5.2-1.5c-1-0.3-2.6,1.3-3.5,1.9c-1.6,1.1-3.2,2.2-4.9,3.3c-0.2,0.1,1.5,4.4,1.7,4.9c-2.2-0.8-4.3-1.5-6.5-2.2
		c-2.7-0.9-2.8-1.4-5,0.6c1,1.2,1.4,2.4,2.9,2.4c1.3,0,2.1,2.2,0.7,2.8c-2.3,1-5.4-1.8-7.8-2.8c-2.1-0.9-1.7-5.6-1.7-7.9
		c0-2.3-4.4-5.2-5.9-6.7c4.9,2.4,10.1,4.1,15.4,5.2c3,0.7,4,0.6,7-0.4c1.3-0.4,1.6-1.2,2.4-2.5c1.3-2.1,1.5-2,0.7-4.4
		c-0.8-2.4-3.5-3.8-5.6-4.4c-2.7-0.9-5.2-2.1-7.6-3.6c-2.8-1.6-4.2-2.4-7.3-2.5c-1.5,0-7,1.2-6.5-2c1.1,0.3,2.5,1.2,2.9-0.3
		c-0.7-0.3-2.8-1.9-3.3-1.2c-1.1,1.5-2.6,0.7-4.3,0.6c-0.7,0-2.6,0.6-2.8,0.2c-0.6-1.5-2.1-1.1-2.8-2.4c1.4,0.1,3.3,0.8,4.7,0.5
		c0.6-0.1,3.6-1.7,2-2.3c-1.9-0.8-3.8-1.5-5.8-2.3c-1.8-0.7-0.5,3.4-2.8,1.7c0.5-0.9,1-1.7,1.6-2.6c-0.6,0-2.8-0.5-3.1,0
		c-0.8,1.1-1.7,2.3-2.5,3.4c-0.2-0.9-0.4-1.9-0.6-2.8c-1.2,1.5-2.8,4.7-4.7,5c0.8-3,1.7-4,3.7-6.2c-1.8-0.2-3.6,0.1-5.2,0.9
		c-1.5,0.9-2.4,3.6-4,4c-4.3,1.3-8.5,2.8-12.5,4.6c-3.7,1.7-6.2,5.1-9,8.3c-2.8,3.2-5.9,5.9-8.2,9.7c-2.4,3.8-3.8,7.6-7,10.6
		c-1.5,1.4-2.9,2.9-4.3,4.4c-1.5,1.7-3.3,2.3-5.3,3.3c-1.6,0.7-3.2,1.6-4.6,2.7c-2.6,2.2-2.8,2.2-3,5.7c-0.2,4.1,1.4,8.1,1.5,12.3
		c0.1,3.4,5.7,4.1,7.8,2.7c1.4-0.9,2.5-2.4,3.9-3.3c1.9-1.4,2.4-1.7,3.1-4.1c0.3,0.9,0.4,2.5,1.3,2.7c1,0.2,0.2,1.9,0.4,2.8
		c0.4,1,0.8,2,1.4,2.9c0.3,0.7,0.1,1.8,0.5,2.4c1.1,1.4,3.7,3.6,3,5.4c-0.3,0.9,0.2,2.3,0.3,3.2c0.3,1.7,0.4,1.4,2,1.2
		c1-0.1,1.7,0.3,2-0.8c0.2-0.9,0.2-2,1.1-2.2c2.2-0.5,4.2-0.5,5.3-3.1c0.8-1.9,0.7-4.9,1-7c0.4-2.6,1.8-3.2,3.7-4.8
		c1.1-0.9,3.6-2.2,2.9-3.7c-0.9-2.1-4-2-5-3.8c-2.5-4.2,1.4-8.8,3.7-11.6c0.8-1,9.8-5.6,8.7-7.6c-1.2-2.1-0.4-3.4,1-5.1
		c2.3-2.6,2.6-2.5,6-2.4c2.3-0.1,4.3,1.4,4.9,3.6c0.6,1.9-1,1-1.9,1.5c-1,0.5-2.2,2.7-3,3.7c-1.5,1.9-3.6,3-5.2,4.8
		c-0.6,0.7-2.6,2.2-2.8,3.2c-0.2,1.1,0.9,3.4,1.1,4.4c0.3,1.2,0.4,2.5,0.1,3.7c-0.3,2.2-0.5,2.1,1.4,2.8c1.2,0.4,2.3,1.3,2.8,2.5
		c0.3,0.5,2.3-0.2,2.8-0.3c4.9-0.9,9.8-2.1,14.6-3c-0.3,0.3-0.3,0.9-0.5,1.3c1.4,0.6,4.5,1.1,5,2.7c-0.8-0.1-2.5-0.8-3.2-0.3
		c-1.1,0.7-2.4,0.3-3.3,0.9c-1.4,0.9,0.6,1.8-1.8,1.5c-1.7-0.2-3.4-0.4-5.2-0.6c-2.3-0.3-4.9,1-7,2c-0.3,0.1,0.3,2.7,0.6,3
		c0.4,0.5,0.9,1,1.3,1.4c0.2,0.2,0.9-0.6,1.2-0.3c0.2,0.1-0.4,3-0.3,3.7c0.2,1.1-0.7,2.9-1.9,2.8c-2.2-0.2-2.9-5.1-5.9-2.9
		c-1.2,0.9-0.6,2.2-1.3,3.1c-0.7,0.9-1.1,2-1,3.1c0.1,1.5,2.1,7.7-1.3,6.1c0.6-0.5,1-1.2,1.3-1.9c-0.5,0.8-1.4,1.1-2.1,1.7
		c-0.3,0.2-0.8,0-1,0.3c-0.3,0.3-0.4,1.4-0.8,1.9c-1,1.2-3.7,0.9-3.8-1.1c0.4,0.2,1.1,0.4,1.3,0.6c-2-1.7-6.2-0.5-7.7,1.5
		c-0.9,1.2-5.5,1.3-6.8,2.1c0.6,0,1.2,0.1,1.8,0.2c0,0.4-0.1,0.8-0.2,1.2c-1-0.6-2.1-0.9-2.5-2.1c-0.6-0.9-1.6-1.6-2.6-1.7
		c-1.8,0.2-3.6,3.2-5.8,2c0.3-0.6,0.6-1.3,0.9-1.9c-2.2,1-4.3-1-4.7-3.3c-0.5-3.2,2.3-4,3.8-6.4c-2.6-0.6-2-4.3-0.8-6
		c-1.7,0.9-3.1,2.8-4.9,2.8c-2.3,0.1-2.7,2.6-2.6,4.8c0.1,1.3-0.2,1.9,0.8,2.7c1.2,1,0.3,1.7,0.8,3.2c0.4,1.3,1.6,1.3,0.3,2.3
		c-0.8,0.6,0.8,2,1.4,2.2c-1.1,0.1-2.3-0.3-2.1,1.3c-0.8-0.2-1.7-0.3-2.5-0.3c-0.5,0.1-1.1,0.2-1.6,0.2c-0.5,0.1-0.2,1-0.5,1.1
		c-1.9,0.6-3.5-0.5-5.2,1.4c-0.5,0.6-1.8,0.4-1.9,1.2c-0.2,1.3-0.7,2.6-1.5,3.6c-0.3,0.4,0,1-0.3,1.3c-0.1,0.1-1.5,0.3-1.5,0.4
		c0,0.6,1.5,0.8,2.1,1c-1.3-0.2-2.6-0.1-3.8,0.5c-0.8,0.4-3.6,1-4,1.7c-0.9,1.4,1,2.6-0.8,3.5c-1.3,0.6-2.9,1-3.8,2.2
		c0.4,0.1,0.8,0.4,1.2,0.4c-1.3,0.6-2.7,0.8-4.1,0.6c-0.9-0.1-0.8-0.2-1.1-1.1c-0.2-0.7-1.4-0.5-2-0.5c0.6,1.2,1,2.4,1.2,3.6
		c0.1,0.8-2.8,1.3-3.3,1.4c-1.5,0.4-0.2-2.6-2.5-0.9c-1.1,0.8-2.5,0.6-3.9,0.7c0,0.8,0.5,1.6,1.3,1.9c-0.3,0-0.6,0.3-1,0.3
		c0.3,0.7,1.1,1.1,1.9,0.9c1.2-0.1,1.5,0.4,2.5,1.2c0.2,0.2,1.6,0.2,2.1,0.5c0.5,0.2,0,0.9,1.2,0.7c-0.3,0.7-0.1,3,1.2,3.4
		c2.2,0.7,1.8,1.4,1.8,3.8c0,2.5,0.4,8.5-2.7,9.1c-1.5,0.2-2.9,0-4.3-0.5c-1.6-0.6-3,0.3-4.8-0.2c-2.2-0.7-3.1-0.6-5.4,0
		c-1.6,0.4-2.5-1.9-4.4-0.2c0.1,0.2,0.2,0.4,0.3,0.6c-0.7,0.1-2.7,0.1-3.1,1.1c-0.4,1,0.3,2.7,1.4,1.8c-0.3,1.8-0.7,3.8,0,5.5
		c0.8,1.9-0.6,4.9-1.1,6.8c-0.5,2-1.3,2.4-0.2,4.2c0.3,0.4,0.9-0.5,1,0.2c0.1,0.6,0.1,1.3,0.2,1.9c0,1.2-0.1,2.3-0.4,3.4
		c1.4-1,2.5,0.3,4.1-0.6c1.9-1.1,2.7,1.5,4.2,0.8c-1.5,1.1,0.7,3.9,2,3.5c1.4-0.4,2.4-2.6,4.2-2.5c2,0.1,4,0.1,5.9,0
		c0.6-0.1,1.4-1.8,1.7-2.4c0.4-0.6,2-0.7,2.7-0.9c-0.6-1.2,1.3-2.7,2-3.7c1.2-1.5-1.2-2.4-0.7-3.4c1.9-3.2,2.8-5.7,5.9-7.3
		c1-0.5,3.6-1.2,4.4-2.2c0.7-1-0.4-3.9,0-4.3c0.7-0.7,2.2-2.7,3.2-2.4c1.9,0.6,3.8,1.3,5.7,1.9c0.7,0.2,6.5-4,7.1-4.7
		c0.8-1,2.2-0.6,3.3,0c2.1,1.1,2.1,1.3,2.7,3.8c0.6,2.7,3.4,3.7,5.4,5.6c1.1,1.1,2,2.7,3.6,2.5c0.9-0.1,3,1.5,2.9,2.5
		c0.5-0.4,1.3-0.2,1.6,0.3c0.2,0.3,0.2,0.6,0.2,0.9c-0.2,0.9,1.3,1,1.9,1c0.5,0.1,2.2,4.6,1.5,5c-1,0.5-0.2,1.2-1.1,1.8
		c-0.9,0.6-2.7,0.6-3.8,0.9c-0.9,0.2-4.9-0.1-5.3-0.6c-2.9,3.2,4.4,2.9,5.1,5.1c0.3,1.2,3.4,0.7,2.6-0.8c-0.8-1.5-0.4-3.3,1.1-4.2
		c-0.1,2.4,2.9-0.2,2.7-1.7c-0.1-1,3.6-1.5,1.4-3.3c-0.8-0.6-1.5-0.5-1.2-1.6c0.1-0.9,0.6-1.8,1.3-2.4c0.9-0.9,3.1,2.2,3.9,2.6
		c1.9-2.6-5.7-5.8-7.2-7c1.7-1.4-0.2-1.3-1.3-1.4c-1.6-0.1-2.3-1-3.6-2.1c-1.1-1-0.9-2.8-1.8-3.9c-0.8-1.1-2.6-1.9-3.7-2.7
		c-1.3-1,0.1-2.7-0.3-3.5c-1.2-2.1-0.1-2.3,1.8-2.8c1.9-0.5,1.5-0.9,1.8,0.8c0.3,1.7,1.3,2.9,2.1,0.5c1.8,1.4,2,2,2.7,4.3
		c0.3,0.8,1.9,3,2.7,3.1c2.9,0.4,5.6,3,7.9,4.8c1.8,1.4,2.5,1.4,2.3,3.8c-0.2,2.5-0.9,3.7,1,5.3c1.1,0.9,1.7,2.9,2.5,4.1
		c1.4,2.2,1.4,2.4,3.8,2.4c-2.6,2.1-1.9,2.4-0.9,5.7c0.9-0.8,1.5-1.1,2,0c0.5,1.3,1.5,1.1,2.8,1.3c-0.4-1.4-1-1.9,0.1-2.7
		c1-0.8,0.9-1.7-0.5-2c1.2-1.5,2-0.4,3.1,0.5c0.4-2.7-1.7-3.2-3.5-4.5c1.4-1.5,1.4-1.3,0.4-3.1c-0.7-1.2-1.9-2.4-0.8-3.7
		c1.1,0.7,1.9,1.7,3.1,0.6c0.3-0.3-0.5-1.4,0.1-1.6c0.6-0.3,1.5-0.8,2.2-0.6c1.4,0.4,2.3,0,3.8,0.6c1,0.4,2,0.4,2.9,0.8
		c-1.1,0.7-2,1-1.9,2.6c1.5-1.4,3-2.8,4.5-4.2c1-1,3.8,1,4.3-0.5c0.2-0.5-2.9-1.9-3.5-3.1c-0.9-1.8-1.3-4,0.5-5.2
		c1.9-1.3,1.8-3,2.3-5.4c0.2-0.8,1.9-0.7,2.3-1.3c0.4-0.7,0.4-2.4,0.5-3.2c0.2-1.3,2.7-3.3,3.6-4.2c0.8-0.9,4.1,0.6,5.4,0
		c-0.6,1.4-2.2,0.7-3.4,0.6c0.6,0.4,1.5,1.5,2.2,1.4c1-0.2,2-0.2,2.9,0c3,1-1.4,2.6-2.5,3.2c2.3,1.1,3.5,0.7,2.6,3.5
		c1.6,1.3,4.5-1.3,6.1-2.1c1.4-0.8,2.9,1,4.2-1.4c-1.8,0-3.6,0.7-4.7-0.7c-0.9-1.1-1.9-3.9,0.3-3.6c-0.1,0.3-0.3,0.6-0.4,0.8
		c1.3-1.3,2.9-2.2,4.7-2.5v0.7c1.4-1.8,3.5-1.9,5.4-2.2c0.5-0.1,2.4-0.7,2,0.6c-0.3,1.1-2.7-0.2-2.1,1.6c-0.8,0-1.6,0-2.4,0.1
		c0.5,1,1.7,1.7,2.5,2.4c-1.8,0-3.5,0.7-2.7,3.2c-0.8-0.2-1.6-0.3-2.4-0.5c0,0-0.6,0.8-0.7,1c0.8,0.6,1.6,1.3,2.5,1.9
		c0.7,0.5,1.4,0.9,2.1,1.3c2.1,0.3,3.4,2.2,5,3.6c1.5,1.4,3.2,1.7,4.5,3.2c1,1.1,1.8,3.8,0.3,4.8c-1.8,1.2-3.4,2-5.5,1.7
		c-1.9-0.2-3.1,0.9-5,0.1c-1.1-0.5-4.6-1-5.1-1.7c-1.3-1.8-0.8-0.1-2.1-0.7c-0.8-0.4-1.6-1.1-1.1-1.8c-1.8,0.6-3.5,0.3-5.4,0.2
		c-1.4-0.1-3.1,1.1-4.3,1.9c-1.8,1.2-2,1.9-4.3,1.5c-1.3-0.2-4-0.7-4.5,0.6c0.8,0.4,1.5,0.8,2.3,1.2c-2.4,1.4-3.8,1.4-6.6,1.5
		c-1.4,0-4.9,0.8-4.5,3.4c0.8-0.1,1.6-0.2,2.4-0.3c-2.4,2.7,1.4,9.1,3.7,10.4c1.2,0.7,3.6,2.7,5.1,2.5c1.5-0.3,1.5-0.2,2-1.8
		c0.5-1.3,1.4-0.6,2.6-0.4c1.8,0.3,2.6,2.4,4.6,2.3c0.8,0,2.3,0.2,3.1-0.2c0.8-0.4,1.5-2.2,2.4-2.4c0.7-0.1,1.5,1.2,2.1,0.7
		c0.5-0.4,1.4-1.5,2-0.8c0.5,0.6-1.8,3.9-0.7,5.5c1.7,2.4-2.6,9.9-3.4,12.3c-1.4,3.9-6.1,4.3-9.2,2.9c-2.6-1.2-2.8-0.9-5.4,0.4
		c-2.4,1.1-2.7,1.1-5.2,0.4c-2.2-0.7-4.5-1.3-6.7-2c-0.5-0.2-1.6,1.1-1.9,0.6c-0.6-1.1-0.6-1.7-1.8-1.9c-1.4-0.3-2.8-0.6-4.2-0.9
		c-0.9-0.2-0.3-1.6-0.9-1.7c-3-0.8-4.5-0.3-7.5,0.5c-0.6,0.2-1.3,2.1-1.7,2.7c-0.4,0.7,0.9,2,0.5,2.8c-1.8,3.4-3.2,3-5.9,1
		c-1.9-1.4-3.9-1-6-1.9c-2.4-1-1.7-3.7-4.1-4.3c-3.1-0.8-6.2-1.6-9.3-2.5c-1.8-0.5-3.6-2.8-5-4.1c0.9-1,3.6-2.9,2.9-4.2
		c-1.5-2.8-1.2-2.9,0.1-5.8c-1.8-0.8-3.4-2.1-5.2-1.1c-2.1,1.3-3.8,0.9-6.3,0.7c-0.8-0.1-1.7-0.2-2.5-0.1c-0.9,0.2-1.8,1.2-2.7,1.3
		c-1-0.2-1.9-0.5-2.8-0.9c-1-0.3-2.5,0.3-3.5,0.4c-3.9,0.6-7.7,1.8-11.2,3.5c-1.8,1-3.6,2-5.4,3.2c-0.4,0.2-2.1-1-2.5-1.2
		c-0.8-0.4-2.6,0.4-3.4,0.6c-1.8,0.4-3.4-2.7-4-2.5c-2.2,0.6-2.6,3.8-3.5,6c-1.3,3.2-7.8,3.8-8.3,7.1c-0.4,2.8-0.8,5.6-1.3,8.4
		c-0.3,2.2-1.2,2.3-3,3.4c-3.5,2.2-6,3.3-8,7c-2.9,5.3-5.8,10.6-8.8,15.8c-0.5,0.9-1.8,2.4-1.9,3.5c-0.2,1.7,1.1,4.8,1.4,6.5
		c0.6,2.5,1.1,5,1.7,7.6c0.3,1.5-1.2,4.1-1.8,5.5c-0.3,0.8-1.9,3.8-1.5,4.5c1,1.7,2,3.4,2.9,5.1c3,5.3,6.1,10.5,9.1,15.8
		c1.9,3.2,3.3,4.3,6.4,6.4c2.4,1.7,4.8,3.4,7.1,5.1c0.9,0.7,2.3,2.3,3.5,1.9c2.5-0.9,5-1.8,7.4-2.6c1.9-0.7,3.2-0.1,5.3,0.5
		c2,0.5,2.7,1,4.5,0.1c2.3-1.2,4.5-2.3,6.8-3.5c1.2-0.6,10.8-2.1,11.5-1.3c1.6,1.9,3.1,3.9,4.7,5.8c1.1,1.4,4.2,0.4,5.7,0.3
		c2.7-0.2,2.6,0,4.3,2.4c1.5,2,1.4,2.2,1.1,4.8c-0.4,3-0.7,6-1.1,9c-0.2,1.5-0.8,3,0.1,4.2c1.6,2.2,3.3,4.4,4.9,6.6
		c0.8,1.1,2.8,2.9,3.1,4.3c1.1,4.8,2.2,9.6,3.4,14.4c1,4.5,2.5,7.9,0.1,12.2c-2.5,4.5-2.6,9.3-3.4,14.5c-0.2,1.1-0.9,3-0.4,4.1
		c1.1,2.3,2.3,4.7,3.5,7.1c1.8,3.6,3.8,6.8,4.4,10.9c0.5,3,0.9,6,1.4,9.1c0.2,1.1,0.1,4.8,0.9,5.5c1.1,1.1,3.1,2.4,3.7,3.9
		c1,2.6,2.1,5.3,3.2,7.9c0.5,1.2,2,3.6,1.9,5c-0.4,3.6-0.5,3.5,2,5.7c0.7,0.7,2.8,3.3,3.8,3.1c2.1-0.4,4.2-0.9,6.3-1.3
		c4.5-0.9,9.1-1.9,13.6-2.9c1.3-0.2,3.1-2.7,4.1-3.5c1.8-1.4,3.6-2.9,5.2-4.5c2.9-3.2,5.3-7.5,7.9-11.1c0.8-1.1,0.5-5,0.7-6.4
		c0.3-2.6-0.2-3.6,1.9-4.7c1.3-0.6,5.1-1.6,5.9-2.8c0.9-1.4,0.6-5.5,0.8-7.2c0.2-1.5-1.9-4.6-2.5-6c-0.9-2,0.8-2.8,2.1-4.3
		c1.5-1.8,3.1-3.6,4.6-5.3c1.2-1.4,4.3-2.1,5.9-2.8c2.8-1.4,5.6-5.4,5.4-8.9c-0.2-4.7,0.7-10.5-2-14.2c-1.8-2.4-2-2.6-1.8-5.7
		c0.2-3.4,0.2-3.9-1.6-6.7c-1.1-1.6,5.5-10.5,6.5-12.3c4.6-7.9,11.8-13.9,17.9-20.3c2.3-2.4,3.7-5.7,5.3-8.8
		c1.9-3.6,4.9-7.4,5.8-11.5c0.2-1,2-5.9,1.5-6.8c-0.8-1.4-3.5-0.2-4.4,0c-5.1,1.3-10.1,2.7-15.2,4.1c-1.5,0.4-3.5-3.4-5.4-4
		c2.8-2.7-0.8-4.9-2.6-7c-1-1.2-2.1-2.5-3.2-3.7c-0.7-0.8-3.4-0.6-3.8-1.6c-1-2.8-1.8-6.7-3.4-9.1c-0.8-1.3-2.4-2.3-3.5-3.4
		c-0.9-0.8-0.8-3-0.9-4.2c-0.3-2-0.6-3.9-0.9-5.9c-0.2-1.1-2-2.4-2.7-3.2c-1.7-1.8-1.3-4.4-2.4-6.7c-1.9-3.9-3.8-7.7-5.7-11.6
		c-0.9-1.9-3.8-5.4-2.2-7.5c1.3,2.8,3,5.4,5.1,7.7c0.7-2,1.3-4.1,2-6.1c-0.2,1.7-0.5,3.4-0.7,5.1c1.8-0.5,2.4,1.9,3.2,3.3
		c1.6,2.8,3.1,5.6,4.6,8.3c0.7,1.3,2.1,1.9,2.7,3.1c1,2,2.4,4,2.8,6.2c0.3,1.5,0.2,5.7,1.6,6.2c2.4,0.9,2.6,1.3,4,3.7
		c2.3,3.9,4.5,6.9,5.4,11.5c0.5,2.9,1.1,5.8,1.6,8.8c0.5,2.9,0.8,2.3,3.6,2.3c1.8,0,2.1-1.9,3.8-2.3c2.2-0.6,4.4-1.3,6.7-1.8
		c1.1-0.2,1.9-0.1,2.5-1.1c0.5-0.8,0.6-1.2,1.4-1.4c2.6-0.9,5.2-1.9,7.8-2.8c1.5-0.5,1.2-2.6,2.8-3.3c1.1-0.5,2.3-1,3.4-1.5
		c0.8-0.3,1.9,0.6,2.7,0.3c0.9-0.4,0.9-3.1,1.8-3.5c1.6-0.7,3.1-1.5,4.7-2.2c1.5-0.7,2.2-0.5,2.2-2.4c0-1.7,0.5-3.4,1.3-4.9
		c0.1,0.5,0.4,0.9,0.5,1.4c1-1.2,4.2-3.8,4.3-5.3c0.1-1.5,0.7-2.6-0.8-2.8c-0.9-0.1-1.5-2.3-2-3.1c-0.6-1.1-1.7-0.7-2.7-1.1
		c-1.1-0.6-2.2-1.4-3.2-2.2c-1.7-1.2-1.2-4.6-1.4-6.7c-1.8,2-3.8,5.5-6.1,6.9c-2.3,1.4-6.4,1-8.8,1.1c-0.1-2.9,0.2-5.4-1.2-7.9
		c-0.3,1.7-0.5,3.3-0.8,5c-1.9-3.7-3.8-7.5-5.9-11.1c-0.6-1-3.5-4.4-2.6-5.4c2.4-2.8,2.3-2.9,5.8-2.4c2,0.3,2.3,2.7,3.2,4.6
		c1.3,2.8,1.6,3.1,4.2,4.4c1.5,0.7,2.5,2.7,4.1,2.9c2.6,0.4,4.1,0.8,6.6-0.1c3-1.1,2.6-0.2,4.1,2.7c0.8,1.7,2.7,1.5,4.4,1.9
		c3.7,0.8,7.6,2.3,11.4,1.9c1.7-0.2,12-2.5,12.7-1c0.6,1.3,1.4,4.5,2.7,5.2c1.8,1,4,2.9,6,3.4c0.8,0,1.6,0,2.4-0.2
		c-0.2,1.9-3.1,1.7-4.4,2c1.3,1.4,3.5,5.1,5.4,5.1c1.7,0.1,1.8,0.3,2.8-1.2c1-1.4,2-2.8,3.1-4.2c0.2,4.8,0.3,9.7,0.4,14.5
		c-0.1,1.7,0,3.4,0.2,5.1c0.5,2.1,1.9,4.4,2.8,6.4c3.3,7.6,6.6,15.1,10.4,22.4c1.4-0.9,2.8-1.8,4.2-2.7c1.3-0.9,1-2.5,1.2-4.1
		c1.5,1.6,2.3,2,2.2,4.2c-0.1,2.3,0,4.5,0.2,6.8c0.5,5.3,7.1,1.9,5.4-2c-0.7-2.1-1.8-4-3.1-5.8c-1.7-2-2-3.2-2.7-5.9
		c-0.4-1.7,0.9-4.3,1.3-6c0.5-1.8-0.1-4.5-0.1-6.3c0-2.2-0.7-3.5,1.1-4.4c1.4-0.7,3.8-1.3,4.9-2.5c3.4-3.5,6.8-7,10.2-10.5
		c1.2-1.2,2.4-2.5,3.6-3.7c0.4-0.5-0.3-2.1,0.1-2.6c0.2-0.3,1.8-0.2,2.1-0.3c2.5-0.3,4.9-0.7,7.3-1c1.4-0.2,3-2,4.2-2.8
		c1.2,2.8,2,6,4.3,7.9c2.7,2.1,3.4,5,4.8,8.3c0.4,0.9-0.4,3.5-0.6,4.5c-0.3,2.3-0.5,2.1,1.6,2.6c2,0.5,1.9,0.5,3.2-1.1
		c1-1.3,2.1-2.6,3.2-3.9c1.6,5,3.3,9.5,3.6,14.8c0.2,2.6,0.8,5.7,0.5,8.4c-0.1,1.5-1.4,6.6-0.5,7.6c2,2.1,3.9,4.2,5.9,6.3
		c1.3,1.4,1.9,5.7,2.5,7.6c0.9,2.8,1,3.7,3.1,5.4c2.3,1.8,4,3.5,6.7,4c-0.9-1.8-1.6-3.7-2.2-5.6c-0.4-2,0.3-4.6-0.4-6.5
		c-0.5-1.3-2.5-3.2-3.5-4c-1.2-0.9-4.3-2.4-4.8-4c-0.3-0.9-1.3-6.2-2.1-6.1c-1.6,0.1-1.6,0.4-1.7-1.4c-0.2-0.9-0.2-1.8,0-2.7
		c0.7-2,1.8-4,2-6.1c0.3-3.6-0.3-4,2.9-4.1c-0.1,0.8-0.2,1.6-0.3,2.5c3.4,0.1,5.3,1.6,7.7,4.3c1.4,1.5,2.8,3,4.1,4.5
		c1,1.1-0.9,3.3,0.5,4.7c4.3-3.2,8.4-6.7,12.3-10.4c1.4-1.3,0.4-5.8,0.3-7.7c-0.1-3.1-1.2-3.9-3.1-6.4c-1.5-2-3.1-3.8-4.4-5.9
		c-0.9-1.5-1.8-2.9-2.7-4.4c-0.3-0.5,0.9-3.2,1.1-3.8c0.6-2,4.3-3.9,5.9-5.1c1.8-1.5,4.7-0.5,6.3,0.8c-0.5,0.1-1,0.5-1.5,0.7
		c0.2,0.5,0.7,2.7,1.1,2.9c1.6,0.8,1.6-1,1.4-1.9c-0.3-1.4-0.5-1.4,0.6-1.8c1.4-0.5,2.9-1.1,4.3-1.6c4.7-1.7,9.3-3.6,13.9-5.5
		c4.3-1.8,6.6-6,9.5-9.8c2.8-3.5,4.7-8.6,6.8-12.7c-1.8-0.5-3.5-1-5.3-1.6c1.4-1,2.8-2,4.2-3c-1.9-1.4-3.8-2.8-5.8-4.2
		c1.8,0.3,3.6,0.7,5.4,1c-1.1-2.4-2.2-4.9-3.3-7.3c-0.9-1.9-2.7-3-4.2-4.3c3.5-3,7-6,10.5-8.9c-3.2-0.8-5.6-2.1-8.6-0.6
		c-2.1,1.1-1.9,1.3-3.3-0.8c-1-1.4-2.1-2.7-3.3-4c-0.9-1,2.3-2.1,2.6-2.2c1.6-0.6,3-1.5,4.1-2.6c1.1-1,2.2-1.8,3.5-2.5
		c2-1,2-0.6,3.8,0.9c-1.7,1.8-4.4,3.9-3.2,6.8c1.5-0.9,2.9-1.8,4.4-2.6c1-0.6,3.2-2.6,4.4-2.6c1.3,0.6,2.5,1.3,3.6,2.2
		c-0.4,1.1-1.8,4-1.6,5.1c0.5,2.2,2.8,1.3,4.2,1.1c1.5-0.2,2.1,1.6,1,2.9c-1.7,2,0.3,1.9,0,4.1c-0.3,1.9-0.5,3.8-0.8,5.8
		c2.6,0.1,3.9,0.2,6.2-1c2.8-1.5,2.4-2.2,2.8-5.6c0.7-5.1-2.3-8.3-5.8-11.3c3.1-3,6.5-5.3,7.9-9.6c0.9-2.8,0.9-3.4,3.2-4.7
		c0.5-0.3,2.2-1.7,2.7-1.6c0.7,0.1,1.3,2.3,2.1,2.1c1.4-0.3,3.8-0.3,4.9-1.4c2-2,4.1-4.1,6.1-6.1c3-3,5-6.5,7.3-10.2
		c2.5-3.9,4.1-6.4,5.1-11c1.1-4.8,2.2-9.6,3-14.5c0.4-2-7-8.1-8.3-5.5c-1.5,3-1.8,2.5-4.9,2.3c-0.5,0-1-2.3-1.2-2.8
		c-0.6-1.5-0.7-1.3-2.3-1.4c-1.2-0.1-2.1,0-2.7-1.4c4.1-3,8.1-5.7,11.7-9.4c3.8-4,7.8-7.8,11.9-11.5c1.2-1.1,5.5-0.4,7-0.5
		c2.3-0.1,4.7,0,7,0.3c0.9,0.1,1.9,0.6,2.8,0.1c0.7-0.4,2.5-2,3.2-1.8c2.6,0.5,5.2,1,7.8,1.5c-1,0.7-1.9,1.4-2.9,2.1
		c2.7-0.3,5.5-0.7,8.2-1c0.5-0.1,3.2-0.3,3.4-0.7c0.6-1.1-1.3-2-2.1-2.7c2.4-2.9,5-5.6,7.9-8.1c1.9-1.5,2.4-1.4,4.8-1.3
		c2.3,0,3.1-0.4,5.2-1.6c-0.6,3-0.9,4.1,0.2,6.9c2.2-1.8,5.4-3.6,7-6.1c0.8-1.2,1.5-3.4,2.9-3.6c1.6-0.2,3.2,0,4.8,0.4
		c-0.5,0.1-3.1,0.3-3.2,0.8c-0.4,1.9-0.9,3.7-1.4,5.6c-0.6,2.5-3.1,3.3-5,4.7c-2.7,2-4.8,3.4-6.5,6.4c-1.9,3.2-3.7,3.7-7,5.3
		c-11.3,5.5-4.4,23.4-2.4,32.8c1.6-2,5-4.8,5.4-7.4c0.4-2.7,0.5-2.4,3-3.1c1.9-0.5,1.4-2.2,1.5-4.3c0.1-1.8,1.5-1.6,2.9-2.1
		c0.7-0.2,3.3-1.3,3-1.9c-1.6-4,1.1-5.3,4.1-6.7c-1.8-2.5-1.7-2.6-0.9-5.6c0.3-1.3-3.3-1.7-4.4-2.1c2-3.1,3.9-6.3,5.9-9.4
		c0.9-1.4,2.2-0.6,3.7-0.4c1.1,0.2,3.1-1.4,4.1-1.9c0,1.1,0.1,2.2,0.1,3.2c2.1-3,2.3-3.2,5.7-3.7c3.6-0.5,3.7-0.1,6.5,2.6
		c1.5-3.5,4.8-4.6,7.8-6.4c3.9-2.4,7.8-4.8,11.8-7.2c0.9-0.6,3.3,0.5,4.4,0.7c0.6,0.1,2.1,0.8,2.7,0.5c0.3-0.1,1.5-1.7,1.3-1.9
		c-1.5-2.1-2.5-3.2-2.7-5.8c-0.1-2.3-2.1-2.8-3.7-4c1.9-0.5,9-1.2,9.2-3.4c0.1-1.4-0.5-5,1-5.3c2.8-0.5,0.6,3.4,1.9,3.5
		c2.1,0.2,4.3,0.3,6.4,0.5c2,0.1,1.7,2,2.2,4c0.3,1.4,2.8-0.1,3.9,0.7c1.3,1.2,3,1.9,4.8,1.9c-0.3-1.3-1.3-3.1-0.1-3.7
		C1083.8,170.1,1083.4,169.4,1083.5,167.5L1083.5,167.5z M682.6,277.7c0.9,0.8,2.1,1.4,1.8,2.8c-0.9,0.4-5.9-0.1-5.8-0.3
		c-0.5,1-1,2.1-0.2,3.2c0.3,0.4,1.4-0.1,1.8,0.3c0.3,0.6,0.5,1.3,0.6,1.9c-0.4,0-0.8,0-1.2-0.1c1.3,2.3,2.7,0.8,2.1,4
		c-0.4,2.1,0,4.1,0.3,6.2c-1.8,0.2-4.7,1.3-6.3,0.8c-1.3-0.4-2.6-0.8-3.9-1.2c-1.1-0.3-1.1-1.3-2.5-1.7c-1.5-0.4-2,0-2.2-1.7
		c-0.3-1.3-0.2-2.6,0.2-3.9c0.5-1.1,0.9-2.3,1.2-3.5c0.5-2,0.8-1.8,2.6-2.3c-2.2-1-2.6-1.8-3.9-4c-0.8-1.4-2.4-1.8-3.1-3.3
		c-1-1.8-1.5-3.9-1.4-6c-0.1-1.7-1.5-3-3.1-3.1c0.6-0.7,2-1.6,2.2-2.5c0.4-2,0.3-2.1,2-2.8c0.7-0.3,3.4-0.9,3.7-1.8
		c0.7-3,0.5-1.7,3-2.2c0.9-0.2,2.5-1.7,3.4-1.3c1.2,0.5,2.7,1.7,3.6,0.5c0.9-1,2,1.5,2.3,2.1c0.7,1.2-0.2,2.7-0.6,3.9
		c2.5,0.8,3.1-1.2,4.1,1.8c-1.9,0.2-2.3,1.2-3.4,2.7c0-1.4,0.8-2.6,2.1-3.2c-1.5-0.7-4.2-0.6-6-0.9c-0.9-0.1-1.8,0.3-2.4,1
		c-0.8,1.2,0.1,1.4,1.1,2.4c-1.5,1.1-1.9-0.7-3.4-0.3c-1.5,0.4,1.9,1.7,1.9,1.8c0.2,1,0.1,3.6,0.7,4.3c0.7,0.9,3,1.4,4.1,1.9
		c-1.2,2.6-0.9,3.6,0.5,6c0-1.4,0.4-5.3,2.9-3.8C682.1,275.6,682.1,277.2,682.6,277.7L682.6,277.7z M175.1,99.2
		c0.8-1,2.1-0.7,3.2-0.7c0.3,0.2,0.7,0.5,1,0.8C178,100.2,176.4,99.4,175.1,99.2z M284.9,362.3L284.9,362.3c1,0.8,2.2,1.4,3.4,1.8
		c0.7,0.2,1.5-1,2.8-0.5c-0.2-0.4-0.5-0.8-0.7-1.1C288.8,362,286.1,360.5,284.9,362.3L284.9,362.3z M274.3,260.9L274.3,260.9
		c-0.1,0.1-0.3,0.3-0.4,0.4l0.3,0.2c0.5-0.6,0.8-0.9,0.5-1.6c-0.1,0.1-0.2,0.3-0.3,0.5c-0.2-0.7-0.9-1.1-1.5-0.9
		c-0.1,0-0.3,0.1-0.4,0.2c-1,0.4-1.4-0.6-2.5,0.2c0.3,0.1,0.6,0.1,0.8,0.2C271.8,260.6,273.3,261.6,274.3,260.9L274.3,260.9z
		 M268.3,258.6L268.3,258.6c-0.6-0.4-0.7-0.2-0.9,0c0.2,0.2,0.4,0.4,0.6,0.7C268.1,259,268.2,258.8,268.3,258.6L268.3,258.6z
		 M269.8,260c-0.5,0-1.1-0.1-1.5-0.4c0.2-0.2,0.4-0.4,0.6-0.5c0.4,0.2,0.6,0.3,0.9,0.5C269.7,259.7,269.8,259.9,269.8,260L269.8,260
		z M352.4,238.3L352.4,238.3c0.4-0.9,0.8-1.7,1.2-2.6c-2.5-1-5.2,2.4-6.1,4.6c-1.2,3.1-3.1,5.9-5.6,8.2c-0.5,1.2-0.7,2.5-0.4,3.8
		c0.6,1,2.8,0.7,3.7,0.6c2.9-0.3,5.8-0.3,8.4,1.1c-0.9,0.2-1.6,1.1-1.5,2.1c2.5-0.5,3-2.2,5.6-2.4c-0.4,1.9-0.6,2,1.1,2.6
		c1.4,0.5,1.6,0.6,2.5-0.7c0.9-1.4-0.1-4.7-0.5-6.2c-0.2-1-2-1.4-1.9-2c0.2-1.7,0-1.7-1.1-3c-0.8-1-4.4,0.3-5.4,0.6
		c-0.1-0.7,0.1-2.1-0.5-2.3c-0.5-0.2-1.5-0.4-1.5-1C350.5,239.7,351,239.5,352.4,238.3L352.4,238.3z M318.4,363L318.4,363
		c0.7,1.8,3.7,0.3,4.4-0.7c-0.2-0.2-0.3-0.4-0.5-0.5C321,361.6,317.4,360.5,318.4,363L318.4,363z M293.5,356.8L293.5,356.8
		c1.2-0.3,2.4-0.7,3.7-1.1c-0.8-0.8-1.8-1.4-2.9-1.7c-0.9-0.2-1.3-1.5-1.7-1.4c-1.9,0-3.8-0.9-4.9-2.4c-0.1,0.1-0.2,0.3-0.2,0.5
		c-3.6-2.4-7.5-4.6-11.6-5c-2.3-0.1-4.6,0.2-6.8,0.9c-1.9,0.5-2.5,2.4-4,3.3c3.1,1.6,6.6-5.3,9.7-2.2c-0.5,0.3-1,0.4-1.6,0.3
		c0.5,0.7,1.4,1,2.2,0.8c1-0.3,1.1,0.5,2.1,0.5c1.7,0.1,3.3,1.3,5.1,1.5c1.7,0.2,1.7,2.2,3.6,3.1c0.5,0.2,2.3-0.2,2.3,1
		c0,0.4-1.6,1.6-1.8,1.9C288.9,357.2,291.2,356.6,293.5,356.8L293.5,356.8z M327.6,255.2L327.6,255.2c-1.5,2.7,1.1,3.2,2.9,4
		s2.3-0.2,3.6-1.6c-1.9-0.1-3.8-0.3-5.7-0.5C328.1,256.5,327.8,255.8,327.6,255.2L327.6,255.2z M326.4,243.2L326.4,243.2
		c1.9,1.5,6.1,5.1,8.5,3.2C332.7,243.9,329.4,243.1,326.4,243.2z M414.4,446L414.4,446c0.9,4,1,3.9-1.2,7c-2.7,3.9-5.3,7.7-8,11.6
		c-1.2,1.8-2.8,3.2-2.9,5.5c-0.4,5.7-0.8,11.4-1.2,17c-0.3,3.8-4.2,7.6-6.1,10.6c-0.9,1.3-1.6,3.4-3.1,3.5c-1.5,0.1-4.9-0.4-6.1,0.4
		c-3.7,2.6-7.5,5.2-11.2,7.7c-0.7,0.5-0.7,6.1-0.8,7.1c-0.1,1.2,0.1,3.2-0.7,4.2c-3.1,4-6.2,8-9.3,12c-2.8,3.7-5.7,7.3-8.5,11
		c-0.7,0.8-9.6-3-11-3.5c-0.8,3.1,4.3,3.4,4.8,6.1c0.3,1.3,1.3,3.8,1,5.1c-0.2,1.2-1.9,2.9-2.6,3.8c-1.9,2.8-4.4,2.7-7.4,3.5
		c-2.4,0.7-4.9,0.8-7.3,0.1c0.6,1.9,1,2.7,0.3,4.4c-0.4,1.1,0.1,2.9-0.5,3.4c-3,2.1-4.7,1.2-7.8-0.4c0,1.6-0.4,3.6-0.1,5.1
		c0.2,1.1,2.1,2.9,1.6,4c-1,2-1.9,4.1-2.8,6.1c-0.9,2-1.3,1.8-3.3,2.3c-1.8,0.4-2.1,2-3.1,3.7c-0.6,1.1,1.6,3.1,2.3,4
		c0.8,1.2,3.6,0.2,3,2.1c-0.3,1.5-1.1,2.9-2.1,4c-1,1.3-2.6,2.5-3.1,4.2c-0.8,2.5-1.4,2.6-3.5,3.8s0.2,7.7,0.6,10
		c0.2,0.9,0.1,2.9,0.8,3.5c1.6,1.4,3.2,2.7,4.7,4.1c2.8,2.4,4.6,1.9,8.2,2c-3.2,1.4-6.4,2.9-9.6,4.4c-2.6,1.2-3.1,0.5-5.7-0.8
		c-3.8-1.8-7.6-3.7-11.4-5.5c-2-0.9-2.3-3.1-3.2-5.2c-2.1-5-5.6-9.9-5-15.5c0.9-8.3,1.9-16.7,2.8-25c0.9-8,1.3-16.4,2.8-24.3
		c1.9-10,3.8-20,5.7-29.9c1.1-6.1,2.3-12.1,3.5-18.2c0.5-2.6,1.4-5.5,1.5-8.1c0.1-2.2-0.6-4.8-0.9-7c-0.2-1.4,0-4.9-0.8-6.2
		c-0.8-1.3-3.5-2.4-4.7-3.3c-2.3-1.6-4.7-3.2-7-4.9c-2.4-1.7-3-3.3-4.5-6c-2.9-5.4-5.8-10.8-8.6-16.2c-2.4-4.4-4.7-8.9-7.1-13.3
		c-1.5-2.7,1-7.8,1.7-10.6c0.3-1.4,0.5-4.6,1.4-5.7c1.4-1.8,2.7-3.5,4.1-5.2c3-3.9,5.6-6.1,4.8-11.6c-0.2-1.2-0.9-1.9,0-2.8
		c0.1-0.1-0.3-1.9-0.2-2.5c0.4-1.7-3.3-3.2-2.9-4.8c0.5-2,0.4-1.8-1.2-2.7c-1.2-0.7-1.2-0.6-2.4,0c-0.9,0.6-1.7,1.2-2.4,2
		c-0.4,0.4,0.8,1.8,1,2.3c-2.3,1-2.2,1.3-3.3-1.3c-0.5,1.4-2.8-1-4.1-1.2c-0.7-0.1-1.1,0.6-1.6,0.3c-0.7-0.5-1.4-1.1-2.1-1.6
		c-1.5-1.1-4.3-2.5-5.4-4.1c-0.9-1.3-0.4-3.4-1.5-4.7c-2.8-3.2-4.4-6-8.3-7.1c-3-0.8-8-1-10.3-3.4c-2.1-2-4.2-4.1-6.2-6.1
		c-1.4-1.3-3.3,0.1-4.9,0.6c-3.7,1.1-7.4-1.5-11-3c-2.8-1.1-5.7-2.3-8.5-3.4c-0.9-0.4-2.6-0.6-3.3-1.3c-1.8-1.9-3.7-3.7-5.5-5.6
		c-1.7-1.7-0.7-2.8,0-5.2c0.5-1.6-2.5-4.7-3.3-5.9c-0.8-1.3-1.8-2.5-2.9-3.5c-2-1.9-4-3.7-6-5.5c-0.5-0.4,0.1-1.7,0.2-2.3
		c0.1-0.6-1-1.6-1.3-2c-1.2-1.8-2.7-3.4-4.4-4.8c-1.5-1.2-3.1-1.9-3.7-3.8c-0.3-1.1-1.2-6.3-2.1-6.7c-1.8-0.8-3.7-1.7-5.5-2.5
		c0.6,2.1,1,6.1,2.3,7.7c2,2.4,3.7,4.3,4.9,7.2c0.5,1.3,1.3,2.5,2.5,3.3c1,0.9,1.3,2.2,1.7,3.5c0.6,1.3,1,2.6,1.2,4.1
		c0.1,2.3,1.1,0.6,1.8,1.2c0.7,0.6,2.2,1.9,2.1,3.1c-0.2,1.5-1.6,1.9-2.2,0.7c-1.3-2.5-3.7-3.9-5.8-5.4c-0.6-0.4-0.4-3.2-0.4-4
		c-0.1-1.2-1.9-2-2.7-2.7c-0.8-0.7-1.6-0.4-2.5-1.1c-1-0.9-2-1.8-3.1-2.7c1.2-0.1,4.1-0.4,2.5-2.7c-1.4-2.1-2-3.1-4.1-4.1
		c-1.4-0.7-1.7-3-2.3-4.5c-1-2.5-2-5-2.9-7.5c-1.1-2.7-4.6-5.1-7.3-5.9c-2.1-0.6-2.9-0.4-3.8-2.5c-1.1-2.3-2.1-4.6-3.2-6.8
		c-1.5-3.4-4.6-5.4-5.7-9.1c-1.4-4.8-1.3-7.9-1.1-12.9c0.2-4.2,0.4-8.4,0.6-12.6c0.2-4.1-0.8-6.6-2-10.5c2.3,0.6,4.6,1.3,6.9,2.1
		c0.1-3.4,0.2-3.8-2-6.2c-1.6-1.7-3.3-3.1-5.2-4.4c-1.7-1.2-3.6-1.2-5.4-2c-3.1-1.3-3.5-1.4-4.9-4.7c-1.6-3.7-7.1-5.7-6.8-9.9
		c0.3-3.8,0.1-3.5-3-5.4c-0.4-0.3-2.3,3.8-3.6,1.8c-1-1.5-2.5-5.3-4-6c-2.1-1-2.6-1.5-3.9-3.6c-1.3-2-2.6-4.7-4.2-6.4
		c-1.4-1.4-3.4-2.3-5-3.4c-3.5-2.4-7.4-4.3-11.5-5.6c-1.7-0.6-3.7,0.8-5.5,0.4c-1.8-0.4-3.9-2.4-5.5-3.4c-2.2-1.4-2.8-1.8-5.3-1.6
		c-2.2,0.2-3.3,0.8-2.4,3.6c0.7,2.3-8.2,4.8-10.2,5.4c-0.4-0.7-0.1-1.5,0.5-1.9c0.1-0.1,0.3-0.1,0.5-0.2c-1.5-0.5-0.4-4.8,0.6-5.3
		c1.8-1,3.8-1.5,5.8-1.2c-0.6-0.5-1.1-1-1.7-1.6c0.7-0.5,1.3-1,2-1.4c-4,0.8-5.6,1.6-8.9,4.1c-2.9,2.2-4,4.6-5.9,7.9
		c0.9,0.2,1.8,0.4,2.7,0.7c-2.7,3.7-5.5,5.7-9.1,8.4c-1.8,1.3-7.5,2.7-7.7,5.4c-0.2,2.4-7.6,3.8-9.7,4.4c-0.9,0.2-1.7,0.3-2.6,0.4
		c-1.1,0.1-0.5,0.7-1.4,1.3c-1.4,1.1-3.2,1.5-4.9,1.1c1.8-1.7,3.6-2.1,5.6-3.4c1.5-0.9,6-5.2,7.3-2.9c0.9-1.7,4.5-5.6,6.4-4.3
		c-0.6-1.8,2.7-3,3-5c0.3-1.7,0.3-2.1,1.5-3.2c0.7-0.7,1.4-1.1,0.7-2.2c-2.4,1.3-5,3.5-7.5,1.7c-0.9-0.6-2.5-2.5-3.5-2
		c-1.3,0.6-2.5,1.1-3.8,1.6c-0.4-2.5-0.9-5.1-1.3-7.6c-0.6,0.4-3.9,2.7-4.4,2.4c-1.2-1-3.6-2.2-4.4-3.6c-0.9-1.5-1-4.5-1.4-6.2
		c-0.3-1.5,0.9-2.6,1.6-3.8c1.4-2.4,1.2-3.1,3.9-2.8c2.2,0.2,2.5-1.5,4.4-2.3c1.9-0.8,3.4,0.7,4.4-1.6c0.7-1.9-0.4-2.2-1.6-3.6
		c0.6-0.3,1.2-0.7,1.7-1c-0.8-2.5-2.8-0.3-4.2,0.5c-1.8,1-2.1-0.2-3.8,0c-3.5,0.5-7.5,1.2-9.5-2.7c0.4-0.1,0.9-0.6,1.3-0.7
		c-1.8-0.6-4.1-0.9-5.3-2.6c2.6-1.3,4.4-2.6,7.2-2.6c-0.2-0.3-0.4-0.5-0.6-0.8c1.8-1.1,3.8-1.7,5.9-1.7c-0.1,2.8,2,2.4,4.2,3
		c1.9,0.5,2.5-0.4,4.2-1.5c-0.8-0.3-1.5-0.7-2.3-1c0.3-0.1,0.6-0.2,0.9-0.3c-0.8-0.7-1.1-1.5-0.2-2.1c-1.9-0.1-3.8-0.5-5.7-1.1
		c-1.6-0.5-1.6-3-3.1-3.8c-1-0.5-5.5-1.7-6-2.8c-0.2-0.5,0.8-2.6,1-3.2c0.1-0.4,1.1-0.3,1.5-0.3c1.7-0.1,4.2,0.4,5.3-1.1
		c1.1-1.8,2.4-3.5,3.9-5.1c2.8-2.4,6.2-3.9,9.8-4.5c2.2-0.4,4.1-0.4,5.9-1.8c2.5-2,2.4-2.1,5.1-0.6c2.5,1.3,9.4-0.5,10.5,2.5
		c0.8,2.2,8.1,2,10.5,2.3c3.6,0.5,7.3,0.9,10.9,1.5c5.3,0.9,10.7,1.9,16,2.8c3.5,0.6,6.8,2.7,10.1,4.1c0.6,0.3,4.3-4.3,4.9-4.9
		c1-1,2.9,2,4.1,1.5c1.9-0.8,10.4-6,11.7-4c-3.1,1.6-6.2,3.3-9.3,4.9c2.4,1.7,10.3-5.3,11-2.3c0.9-1.1,1.8-2.2,2.8-3.3
		c0.7-0.9-1.1-1.1,0.3-2.2c2.4,2.8,4.7,5.3,7.3,7.8c0.8-2.7,1.2-3.6,3.1-5.3c1.2,1.2-0.9,1.8,0.7,2.7c0.6,0.3-0.4,1.6-0.6,2.2
		c1-0.3,2.9-0.3,3.8-1c0.3-0.3-0.4-1.5,0.2-1.6c0.6-0.1,1.2-0.2,1.7-0.3c2.1-0.3,4.8,1.7,6.7,2.5c3.9,1.7,8.4,2.3,12.6,3.4
		c-0.1-0.3-0.2-0.6-0.3-0.9c2.6,0.1,4,1.3,6.3,2.9c1.7,1.2-3.5,3-3.9,3.1c1.7,0.5,3.6,1.5,5.4,1.3c3-0.2,6-0.5,9-0.7
		c1.4-0.1,3.8-0.5,4.8,1c1.4,2,2.7,4.1,4.1,6.1c-0.2-0.9-0.4-1.8-0.6-2.7c-0.1-0.5,0.4-1,0.3-1.6c-0.3-2.1-1.3-1.6-0.1-3.7
		c0.8-1.4,6.9-1.6,5.6-3.7c-3,1.2-5.1,2.2-8.3,2.1c0.7-2.7,1.8-2.4,4.2-3.2c2.5-0.8,2.9-1.1,5.2,0.2c0.7,0.4,1.1,1.9,1.4,2.6
		c0.5,0.9,1.2,0.8,2.1,1c1.9,0.4,3.7,1,5.5,1.7c1.6,0.6,10.1,1.6,10.4,0.4c0.7-2.4,0.8-3.6,3.5-3.6c1.7,0,3.6,0.9,5.3,1.3
		c-0.2,0.8-1.3,3.3-1,4c0.3,0.8,2.6,1.8,3.3,2.2c-0.9-2.8-1.9-5.2,1.5-5.7c1.4-0.2,2.2-1.5,3.2-2.5c0.7-0.7,0.2-1.7,0-2.7
		c-0.9,0.4-1.8,0.8-2.6,1.3c-0.3-2.7,1.6-3.2,3.6-3.3c-0.1-2.1-2.1-0.6-3.4-1.1c-1-0.4-4.6-1.1-5-2.2c-1-2.3-0.9-3.8-0.9-6.4
		c0-2.5,1.2-2.8,3.1-2c0.3-1.2-0.5-1.6-1.5-1.5c1.8-1.2,2.1-1,2-3.3c0.1-1.6-0.3-3.2-1-4.6c-0.7-1.3-0.2-3.3-0.1-4.8
		c0.1-1.2,2-0.5,2.9-0.5c-3.3-3.7,2.5-2.6,4.8-2.6c2.9-0.1,5.7,0.3,8.5,1.2c-1.3,1.9-3,5.9-4.9,7c-1.6,1-5.6,0.2-7.3,0.1
		c5.5,0.8-0.8,4.4-0.5,6.2c2.8-0.5,4.4,2,4.9,4.6c0.3,1.7,3.1,3.8,4.2,5.1c-1.4,0.9-2.7,1.8-4.1,2.8c1.4,0.5,2.4,1.4,3.7,0.6
		c1.3-0.9,2.4,0.2,3.7,0.9c-0.7,0.4-1.3,0.9-2,1.3c1.3,1.1,2,1.2,1.6,2.9c-0.4,1.7-0.7,2.1,0.9,3.2c0.9-1,1.5-2.3,1.6-3.7
		c0.1-0.6,0.6-3.2,1.7-2.5c0.7,0.5,3.2,1.4,3.4,2.3c0.3,1.5,1.3,3.3-0.6,3.9c0-0.4-0.2-0.8-0.2-1.1c-3.8,2.1,4.7,9.8,5.1,5.6
		c0.1-1.2-0.1-1.9,0.8-2.6c0.4-0.4,1.7-1.1,1.7-1.8c0-3.1,0-2.9,2.6-4.1c-1-1.6-2-2.4-1.6-4.3c0.4-2,1.5-1.5,3.2-1.2
		c1.1,0.2,4.2,0.1,5,1c0.9,1.4,2.4,2.2,4,2.4c-0.9,1.6,0.5,2.7-0.4,3.8c-0.6,0.7-2.6,0.4-3.5,0.5c0.8,1.7,1.3,3.2,2.6,4.4
		c1.4,1.3,2,2.3,0.5,4.2c-1,1.3-3.4,2.1-4.7,2.9c-1.3,0.8-2.2-0.9-3.3-1.9c0.5,1.2,1.1,2.4,1.6,3.6c-0.8-0.4-1.6-0.9-2.5-1.3
		c0.1,0.3,0.2,0.7,0.3,1c-0.9-0.2-1.7-0.4-2.5-0.6c-0.6-0.1-0.1-1.6-0.7-1.6c-1.3,0-3-0.5-3.7,1c0.8,0.5,1.6,0.9,2.3,1.4
		c-0.8,1.3-1.5,2.8-2.8,3.5c-1.9,1.1-2.5,0.2-4.5-0.9c-3-1.6-5.6-1.4-9-1.6c2.3,1.2,4.6,2.3,6.9,3.5c1.7,0.8,4.5,0.6,6.3,0.8
		c-0.7,1.2-2,4.7-3.2,5.2c-0.7,0.3-1.7,1.1-2.5,1c-1-0.1-1.9-0.4-2.7,0.1c-2.5,1.8-2.7,1.9-5.6,1c-1.8-0.5-3.7-1-5.5-1.5
		c1.2,0.6,2.4,1.1,3.6,1.7c-0.3,0.2-0.4,0.6-0.7,0.8c1.9-0.5,2.2-0.4,4,0.5c0.9,0.5,2.3,1.9,0.8,2.6c-1.3,0.7-2.8,0.9-4.2,0.7
		c-0.6,0-1.5,2-1.8,2.5c-1.5,2.3-3.8,4.8-4.4,7.6c-0.7,3.2-1.3,6.3-2,9.5c1.3,0.3,4,0.3,5,1.2c1.1,1,1.7,4.7,2.2,6.1
		c0.9,2.6,1.5,1.6,3.9,1.1c1.3-0.3,2.7,0.6,4,1c3.4,1.1,6.7,2.8,9.6,4.9c1,0.7,3,2.9,4.2,3c1.8,0.2,3.7,0.4,5.5,0.6
		c0.6,0.1,4.2,0,4.1,0.8c-0.1,2.5-0.2,5.1-0.3,7.6c-0.1,3.5,3.4,6.2,5.4,8.8c2,2.5,6.3-2.1,5.9-4.3c-0.4-2.3-0.7-4.5-1.1-6.8
		c-0.2-1.2-1.8-2.8-2.5-3.8c2.2-1.5,6.5-3.1,8.1-5.3c1.4-2,1.8-7.4,0-9.2c-1.3-1.1-2.4-2.3-3.4-3.7c-1.4-2-1.9-1.8-0.1-3.4
		c2-1.8,2.1-1.5,1.4-4.1c-0.4-1.4-1.3-3.1-0.8-4.5c0.8-2.6,0.9-3.1,0.1-5.6c-0.5-1.6,0.5-2.2,2.2-2.4c3-0.4,5.8,2.3,8.8,0.9
		c1.9-0.9,2.4,0.1,4.1,1.3c0.8,0.6,3.2,1.6,3.5,2.7c0.4,1.7,1.4,2.9,3.2,2.7c1.5-0.2,2.5,0.5,3.9,1.2c-0.8,1.3-1.3,1.7-1,3.2
		c0.2,1.4,0.7,2.8,0.1,4.2c0.4-0.1,0.8,0.1,1.2,0c-0.7,0.9-2.8,2.4-1.7,3.4c1.9-5.8,8.9,6.8,10.3-1c0.3,0.3,0.9,0.4,1.2,0.7
		c0.8-1.7,2-3.2,1.7-5.1c-0.2-1.3,1.6-3.9,3-3.6c-0.2,0.7-0.3,1.4-0.5,2.1c3,0.1,5,6.3,6.4,8.8c0.8,1.4,3.2,4.1,3.3,5.7
		c0.1,0.9-1.5,2.1-1.3,2.9c0.1,0.4,1.6,1.3,1.9,1.5c0.9,0.5,1.7,1.2,2.5,2c0.5,0.9-0.3,1.9,0.9,2c2.3,0.1,3.3,0.2,5.2,1.5
		c1.3,0.9,3.9,2.1,1.1,2.6c-1.6,0.3-3.2,0.8-4.8,1.4c1,0.4,2.2-0.3,3.3-0.7c-0.7,1.3-3,1.4-4.2,1.8c-1.2,0.4-0.8,2.9-0.2,2
		c0.5-0.6,1.1-1,1.9-1.2c0.8-0.3,0.5-0.7,0.9-0.9c1.1-0.6,2.4-1,3.7-1c-0.5,0-1-0.3-1.4-0.7c0.9,0,2.7,0.1,3.1,1.2
		c0.5,1.4-1.1,1.3-0.2,2.4c1-1.9,2.3-0.9,3.9-0.4c1.3,0.4,0.3,2.9,0,3.7c-0.5,1.4,1.1,1.9,0,3.6c-1,1-2.2,1.7-3.6,2.2
		c-1.3,0.3-2.5,0.1-3.9,0.5c-1.4,0.5-2,1.3-3.1,2.5c-2.2,2.4-4,2.7-7.2,2.4c-3.1-0.3-6.3-0.4-9.5-0.2c-2.8,0.2-5.8-0.8-6.6,3
		c-0.2,1-3,1.3-3.7,1.8c-1.2,1.1-2.4,2.3-3.4,3.6c-1.9,2-2.9,4.5-5.2,6.1c3.8-1.9,5.9-5.9,9.7-7.8c2.6-1.3,9.8-5.3,11.6-0.6
		c-0.3-0.2-0.7-0.2-1-0.4c1.9,1.3-0.7,2.3-1.7,3.1c-1.2,1.1-2.3-0.8-3.7,0.2c0.6,0.2,2,1.7,2.1,1.7c0.8-0.3,1.8-0.4,2.6-0.2
		c-0.2,1.1-0.8,2-1.7,2.7c0.4-0.2,1,0,1.5-0.1c-0.7,2,1.4,3.6,2.9,4c-0.2,0.1-0.3,0.3-0.5,0.4c2.2,1.1,4.4,2,6.3,0.6
		c0.1,0.4,0.1,0.7,0.2,1.1c0.5,0,0.9-0.2,1.3-0.4c-1.3-1.7,1.3-4.2,2.2-5.6c1.7,0.6,0.7,2.2,0.4,3.5c1.3-1,3.1,1,2,1.4
		c-1.4,0.6-2.8,1.5-4.4,1.2c0.4,0.3,0.5,0.8,0.9,1.1c-1.8,0.7-3.6,1.5-5.4,2.2c-0.7,0.2-1.4,0.5-2,1c-0.8,0.7-1-0.9-1.6-0.4
		c-1.2,1-2.3,2.9-3.7,4.2c-0.9,0.9-1.8-0.4-2.3-0.6c-1.9-2.7,2.7-5.1,4.2-6.2c1.1-0.8,0.6,0.1,1.1,0.6c1,0.9,1.7-0.3,2.6-1.2
		c-1.2,0-2.8-0.5-3.8,0.2c0.2-0.7,0.5-1.4,1-1.9c-1.4-0.4-3.2,1.5-4.4,2.3c-0.8,0.5-0.7-0.6-1.6,0.4c-0.4,0.5-1.5,0.2-2.1,0.2
		c0.9,2.9-4.1,1.9-4.7,3.2c-0.2-0.2-0.4-0.4-0.6-0.6c-0.8,1.6-1.5,1.8-3,2.3c-1,0.4-1,1.1-1.4,2.2c-0.6,1.6-3.4,6.8,0.4,6.3
		c-0.1-0.2-0.2-0.5-0.3-0.7c0.3,0.3,0.6,0.6,0.8,0.9c-1.2,0.8-2.5,0.1-3.7-0.2c-0.6-0.1-0.4,1.6-1.3,1.7c-2.8,0.2-4.1,0.4-6.6,2
		c1.8-0.2,3.2-1.1,4.9-1.3c-0.2,0.1-0.4,0.3-0.6,0.4c0.5,0,1,0.1,1.4,0.1c-1,0.7-2.1,1.1-3.3,1.3c-1.1,0.1-3-0.3-3.6,0.8
		c2.7,0.3-1.2,5.4-2.1,6.2c0.6-1.1-1.3-1.8-1.7-3.1c0.1,1.6,2,3.7,1.3,5.1c-0.7,1.5-2,3.2-2.4,4.6l-0.3-0.1c0.1-1,0.4-2,0.9-3
		c-0.7-0.4-0.4-1.8-1.7-1.5c0.1-1.1,0.3-2.1,0.7-3.1c0.1-0.2,1-2.2,0-1.5c-2.3,1.6-1.6,2.7-1,5.5c-0.6-0.5-1.4-0.9-2.2-1.1
		c0.6,0.8,2,1.1,2.4,1.9c0.3,0.6-0.5,2.5-0.3,3.1c0.3,1.1,1.9,0.5,1.5,2.4c-0.3,1.5-1.3,1.3-2.5,1.8c1.1,0,3.1-0.4,2.8,1.3
		c-0.1,0.7-2.4,0.7-3.1,0.8c0.3,0.2,0.6,0.5,1,0.7c-0.5,0.2-0.8,0.5-1.4,0.5c0.5,1.4,1.4,0.1,2.3,0.7c-0.6,0.3-1.3,0.7-1.9,1
		c-0.5,0.2-1.2-0.5-1.6-0.3c-0.8,0.5-1.5,2.3-2.1,3c-0.4,0.6-1.8,0.3-2.5,1.2c-0.6,0.9-1.3,1.7-2.1,2.4c-3,1.8-3.6,2.6-5.2,5.9
		c-0.8,1.6-0.3,4.4,0.5,6c1.2,2.6,2.2,5.4,3,8.2c0.4,1.5,0.8,5.5-0.3,6.6c-0.8,0.8-1.5,2-2.5,0.6c-0.3-0.4-2.1-2-2.1-2.2
		c-0.3-1.1-0.8-2.2-1.3-3.3c-0.5-1.2-1.1-1.9-0.8-3.3c-0.2,0.2-0.4,0.4-0.6,0.6c-0.5-1.8,1.1-4.4-0.7-5.7c-1.6-1.1-2.5-3.3-4.3-2.7
		c-1,0.3-2.1,1.1-3,0.5c-0.9-0.8-1.9-1.4-2.9-1.9c-1.7-0.5-4.4,1.7-4.9-1.1c-0.3,2.4-5.7,0.7-7.3,2c1.1,0.1,5.3,0.6,2.2,2.1
		c0.3,0.2,2,0.8,2.1,1.1c0.1,0.5-0.1,1-0.6,1.1c-0.2,0-0.3,0-0.5,0c0.4-1.1-1.2-1.6-2-2.1c0.2,0.8-0.2,1.1-0.2,1.7
		c-0.8-1.6-1.4,0.1-2.4-0.7c-1.3-1-1.9-1.9-3.4-1.4c-0.9,0.3-2.1-0.5-2.9-0.8c-1.5-0.6-4,1.2-5.4,1.8c-2.4,1-8.2,5.3-8.2,8.7
		c0,1.1,1.4,2.2,1.5,3.2c-0.1,0.9-0.4,1.8-0.7,2.6c-0.5,1.9-1.4,3.8-1.4,5.8c0,5,0.7,8.6,3.4,12.8c1.6,2.4,2.2,4.2,4.9,4.9
		c0.5,0.2,1.4,1.6,1.9,1.4c1.1-0.4,2.2-0.8,3.3-1.2c0.9-0.4,1.9-0.6,2.9-0.7c0.8-0.1,1.4,1,1.8,0.8c0.5-0.2,1-0.4,1.4-0.7
		c0.3-0.2-0.4-0.9,0-1.2c0.9-0.6,1.5-1.4,1.8-2.4c0.6-2.1,0.4-4.6,2.7-5.5c1.6-0.6,3.3-0.9,4.9-1c1.3,0.2,4.9-0.6,3.7,2.1
		c-0.5,1.1-1.9,4.3-2.7,4.3c0.4,0.2,0.2,0.6,1.1,0.6c-0.3,0.3-0.6,0.7-0.9,0.9l0.2,0.2c0.2-0.1,0.3-0.2,0.5-0.3
		c-0.5,1.3-0.8,2.6-1.1,3.9c-0.6-0.6-0.8-1.5-0.6-2.3c-0.4,0.5-0.6,1-0.9,1.5c1.7,0.1-0.2,3.3,0.3,4.5c0.5,1.1-1.3,3.1-2,3.8
		c2.4,0.8,4.7,0.2,7.4,0.6c1,0.1,1.8-0.8,2.8-0.6c1.3,0,2.5,0.2,3.7,0.5c2.2,1,3.7,2.5,3.3,5.1c-0.3,1.7-0.5,3.3-0.8,5
		c-0.2,1-0.9,1.8-1.1,2.7c-0.6,4.5,4.9,11.9,9,10.2c2.5-1,3.8-2.1,6.5-1.3c2.6,0.8,3.6,2.2,5.5,4.3c-0.1-3.2,3.8-7.5,5.4-10.1
		c0.5-0.8,3.4-1.3,4.2-1.6c2.1-0.8,4.3-1.5,6.5-2.3c2-0.7,5.5,1,7.5,1.5c5.1,1.2,10.2,2.4,15.3,3.6c2.8,0.6,5.6,0.7,7.7,2.7
		c4,3.8,8,7.7,11.9,11.5c2.5,2.4,8,2.5,11.2,3.3c3,0.7,5.4,5.7,7.2,8.2c1.9,2.5,3.8,5,5.8,7.5c0.5,0.6,1.5,2.6,2.2,2.9
		c4.1,1.5,8.2,3,12.3,4.4s8.2,3,12.3,4.4c3.4,1.2,6.9,5,9.9,7.1c0.6,0.1,4.4,0.1,4.5,0.5C413.5,442.3,413.9,444.1,414.4,446
		L414.4,446z M282.6,271.1L282.6,271.1c0,1.3-4.2,2.3-5.4,2.2c-1.8-0.1-2,0-3.5,1.3c-0.9,0.8-1.6,1.8-2.9,1.1
		c0.2-0.9,0.9-1.5,1.8-1.7c-0.5-0.7-0.6-0.2-0.8-1.1c-1,1.2-1.8,2.5-2.5,3.9c0.7,0.2,1.4,0.4,2,0.6c-0.1,0.2-0.3,0.4-0.4,0.6
		c2.7,0.3,3.9-1.1,6.3-2c2.1-0.8,4.1-2,5.9-3.5C283.1,271.9,283.2,271.5,282.6,271.1L282.6,271.1z M286.2,270.2L286.2,270.2
		c2.1,2,6.6-1.9,4.3-2.8c0.6-0.6,1.3-1.1,1.9-1.7c-1.3,0.5-4,2.6-5,2.2c-1.7-0.7-3.8,0.3-5.5,0.6
		C278.3,273.3,284.7,268.8,286.2,270.2L286.2,270.2z M243.6,256.2c1.2-1.2,2.4-2.4,3.6-3.5c1.3-0.6,2.7-1.2,4-1.8
		c1.1-0.5,0.4-2,2-2.2c-0.1,0.4-0.2,0.7-0.4,1.1c0.9-0.4,0.8-1.5,1.7-2c0,0.6-0.2,1.1-0.6,1.6c1-0.6,1.9-1.3,0.8-2.2
		c1.1,0.1,2.2,0.4,3.1,1c0.8,0.4,1.8-1.1,2.6,0.2c1.5,2.3,1.5,3.6,4.5,3.1c-0.7,2.1,0.5,1.3,0.9,2.7c0.2,0.5-0.6,0.9-0.2,1.4
		c0.3,0.5,0.7,0.8,0.4,1.4s3.8,1.8,4.5,1.9c2,0.4,4.4,0.5,6.4,0.9c2.3,0.5,2.2,3.6,3.7,4.9c-1.3-0.7-0.9,0.6-1,0.7
		c-0.8,0.2-2.1-0.8-2.9-0.1c-0.1-0.4-0.1-0.3-0.5-0.6c0.4-0.4,0.3-0.5,0.5-0.9c-1.3,0.2-0.6-1.9-2.2-1.1c2.2,1,0.7,2.7,0.2,4.2
		c-0.2,0.7,0.2,2.1-0.3,2.6c-0.7,0.8-1.4,1.5-2.1,2.3c-0.2-1-0.2-4.2-1.5-4.3c-0.5,0-2.8,2.1-3.1,1.1c-0.1-0.5,1.1-1.9,1.3-2
		c1-0.7,0.7-2.3,0.2-3.2c0.2,0,0.3,0,0.5,0.1c-0.4-1.7-1.7-1.2-2.7-2.2c-0.8-0.8-3.7-1.2-2.3,0.7c-1.6,0.1-1.3,1.7-2.1,2.6
		c0.1-0.5,0-1.2,0-1.7c-0.9,1.9-3,2.3-2.5,5.3c0.5,2.7,1,4.5-0.4,7.2c-2.5,5.1-3.8-1.4-3.9-4c-0.1-1.6,0.7-3.4,1.1-4.9
		c0.3-1.2,1.4-2.9,1.3-4c-1,0.6-1.6,3-2.8,2.7c0.6-2,1.7-3.8,3.1-5.3c0,0.3,0.1,0.5,0.1,0.8c0.4-0.4,0.8-0.4,1.2-0.7
		c-0.2,0.2-0.3,0.5-0.5,0.7l0.3,0.2c1-1.8,4-2.7,5.5-1c0.4-1.2,1.5-0.6,2.6-0.5c-0.6-0.6-0.9-1.7-1.5-2c-0.8-0.4-2.1,0-1.7-1.4
		c-0.7,0.1-5,1.6-5.5,1.4c-1-0.6-1.7-0.1-2.4-1.1c-0.7-1-1.7-0.9-2.7-0.4c0.3-1.1,1.2-2.1,2.3-2.5c-2.2-1.8-6.5,4.3-9.5,2.7
		c0.1-0.3,0.2-0.6,0.3-0.8C246.1,256,244.9,256.8,243.6,256.2L243.6,256.2z M167.1,163L167.1,163c-0.4,0-0.8-0.4-1.2-0.4
		c0.3-0.3,0.6-0.7,1-0.9c-1.4-0.2-2.3,1.5-3.7,1.8c-1.9,0.3-2.6,0.4-4.4-0.4c0.5-1.5,2.7-1.9,4-2.5c-2.6-0.9-3.2-1.2-5.7-0.2
		c-1.6,0.6-3.1,1.2-4.7,1.7c-1.7,0.6-3.5,0.8-5.2,1.4c-0.9,0.3-4.6,0.5-1.9,2.2c0.2-0.1,0.7-0.5,0.8-0.5c-0.1-0.2-0.2-0.4-0.3-0.5
		c1.7-0.4,3.4-0.5,5.1-0.1c-0.1-0.2-0.2-0.4-0.3-0.6c1.9-0.4,3.8,0,5.4,1c-0.9,1.4-3.2,0.2-4.6,0.6c0.6,0.4,1.2,0.9,1.5,1.5
		c-0.7,0.2-1.4,0.6-2,1c1.2,1.4-0.8,1.6-1.7,1.7c1.3,1,2.7,0.3,4,0.9c0.9,0.4,2.1-1.9,2.9-2.4c1.3-0.9,3.7-0.2,1.8,1.1
		c-0.8,0.5-0.9,1.2-1.2,1.5c-0.3,0.3-1.1,0.3-1.5,0.6c1.9,1.7,3.7-3.1,6.1-2.4c-0.3-0.8-0.9-1.3-1.7-1.5c1.9-2,5.7,1,6.6-1.2
		c-0.4,0.1-0.7,0.1-1.1,0.1c0.1-1.3,1-0.6,1.3-1.4C166.6,164.3,166.8,163.6,167.1,163L167.1,163z M192.9,182.4L192.9,182.4
		c-2-0.9-5.2-1.5-7.1,0.1c-0.6,0.7-1.2,1.5-1.8,2.3c-0.7,0.9-1.8,1.5-2.9,1.5c-1.3,0.1-3.4,0-4.1-1.6c-0.2-0.4-2.4,0.1-3-1.1
		c-0.2-0.3-2.2-1.2-2.5-1c-0.5,0.4,2.1,1.6,2.5,1.5c-0.7,1.7,3.1,3.1,0.8,3.6c-0.7,0.2-1.4-0.4-1.9,0.4c-0.6,0.9-0.2,1.2-1.3,1.4
		c0.2,0.1,0.3,0.3,0.5,0.4c-0.8,0.7-1.7,0-2.7,0c0,0.2,0.1,0.3,0.1,0.5c-1,0-1.8-0.5-2.7-0.4c1.3,1.7,4.5,2.1,6.5,2.4
		c1.2,0.2,6.1-0.5,5.3-2.1c1.5-1.3,2.4-0.9,4.1-1.6c0.9-0.4,1.9-1.7,2.7-2.5c-0.2,0-0.5,0-0.7,0c0.8-0.9,1.7-1.5,2.8-1.9
		c1.1-0.3,1.7,0.2,2.6-0.8c-0.8,0.4-0.9,0.2-1.6,0c0.7-0.2,1.4-0.4,2.2-0.5c-0.7,0.1-1.4,0-2-0.4c0.5,0,1.1,0,1.6,0
		c-2-0.7-3.7,0.7-5.6,1.8c0.6-2.3,6.8-3.7,7.1-1C192.2,183.1,192.5,182.8,192.9,182.4L192.9,182.4z M226.3,234.4L226.3,234.4
		c0.2-1.2,0.1-0.7,0.8-1.1c0,0.3-0.1,0.6-0.2,1c0.2-0.1,0.3-0.3,0.3-0.6c1,0.4,0.7,1.6,0.6,2.6c0.3-0.6,0.8-1.2,1.4-0.8
		c0.5,0.2-0.4,1.5-0.5,2c0.3-0.2,0.7-0.4,1.1-0.6c-1.1,0.9-1.5,2.4-1,3.7c0.4,1.3,1.2-0.2,1.1-0.9c0.2,0.1,0.5,0.1,0.8,0.3
		c-0.5-1.2,0.4-2.4-0.3-3.1c-0.8-0.7-1.3-2.5-1.7-3.4c-0.6-1.6-3.6-8.1-2.3-8.9l-0.3-0.1c-0.4,0.5-0.5,0.4-1.2,0.6
		c0.1-0.7,0.6-1.2,1.2-1.4c-0.2-0.2-0.4-0.4-0.7-0.6c-1,1.7-0.9,2.2,0.4,3.2c-1.1-0.5-3.1-1.5-3.5,0.2c-0.8,2.9-0.3,2.3,1.8,2.9
		c-2.4,0.5,0.5,3.4,1.2,4.7C225.8,234.1,226.1,234.2,226.3,234.4L226.3,234.4z M22.4,195L22.4,195c-2-0.9-3,0.6-5.2,0.4
		c0.9,1.4,2.3,1.6,3.7,2.1c0.2-0.8,1.1-0.5,1.9-0.6c0-0.2,0-0.3-0.1-0.5C22.6,195.8,22,195.9,22.4,195L22.4,195z M143.8,130.5
		L143.8,130.5c1.9,0.9,3.4,1.5,4.7,3.1c2.2,2.6,2,2.6,4.8,0.9c0.4-0.3,0.9-0.5,1.3-0.8c0.4-0.2,0.3,0.7,0.6,0.6
		c1-0.3,1.9-0.8,2.8-1.3l0.8-4.1c1.3,0.9,2.7-0.2,3.1-1.7c0.3-1.3,0.9-1.2,2.1-1.7c2.4-1.1,6.2-1.8,8.2-3.6c1.3-1.1,1.2-1.7-0.3-2.8
		c-1-0.8-2.1-1.5-3.2-2.1c-2.3-1-4.9-1.9-6.9,0.3c0.2-0.4,0.1-0.8,0.2-1.2c-2.7,0.8-5.1-2.4-7.7-2.1c-3,0.4-6,0.9-9,1.3
		c0.5,0.9,2.7,3.9,2.3,4.4c-1,1-3.5,3.3-1.9,4.6c-2.6,0.2-0.7,1.2-1.7,2.5c-0.8,1.1-2.2,2.2-1.9,3.8
		C142.8,130.8,143.3,130.7,143.8,130.5L143.8,130.5z M155.5,105.4c-1.1-0.1-2.1-0.3-3.2-0.5c-1.9-2.4-0.2-3.1,2.2-3.4
		c1.5-0.2,3.6-2.9,4.7-3.9c1.7-1.5,2.5-2.3,4.6-2.6c0.8-0.1,1.9-0.5,2.7-0.2c1,0.4,2,1.1,2.9,0.2c-0.5-0.2-0.6-0.5-1-0.7
		c2.2-0.8,2.9,0,5,1.1c-1.4,0.5-4.2,2-1,2.5c-0.6,0-1.1,0.1-1.6,0.3c2.5,1.2-1,3.8-2.4,4.2c-2,0.6-4.2-1.7-2-3.2
		c-0.4-0.4-1.7-0.5-1.7,0.3c0,1.7-0.9,0.9-1.9,1.5c0.6,0.1,1,0.7,0.9,1.2c0,0.2-0.1,0.4-0.3,0.6c-1.2,1.3-1.7-1.1-2.3-0.8
		c-1.1,0.5,0.7,1.9,0,2.6c-0.6,0.7-1.8,0.8-2.6,1.1c0.2-1.6-0.9-2.7-1.8-1.9C156.2,104.4,157,105.7,155.5,105.4L155.5,105.4z
		 M178.9,92L178.9,92c-2-1.8-2-2-4.5-1l2.6,1.8C177.6,92.5,178.2,92.2,178.9,92L178.9,92z M59.9,205.9L59.9,205.9
		c1,0.7,2.3-0.4,2.7-1c0.2,0.1,0.3,0.3,0.5,0.4c0.2-0.2,0.3-0.4,0.5-0.7c-0.6-0.3-1.3-0.5-1.9-0.8C60.8,204.3,60.2,205,59.9,205.9
		L59.9,205.9z M124.4,225.2L124.4,225.2c0.2-1.7-4.1-1.1-4.1-0.7c-0.2,2.2,4.5,10.3,6.2,8.3c-0.5-0.4-0.9-0.9-1.4-1.3
		C124.4,229.5,124.2,227.4,124.4,225.2L124.4,225.2z M57.7,208.2L57.7,208.2c-2.7-1.6-3.1,4.1-0.3,3.8c0.8-0.1,1.4-1.4,2.4-1.5
		c0.9,0,1.6-0.6,1.6-1.5c0-0.1,0-0.1,0-0.2c0.7,0.3,1.2,0.1,1.5-0.7c-0.3-0.1-0.5-0.1-0.8-0.2C62.9,206.1,57.5,205.8,57.7,208.2
		L57.7,208.2z M148.2,246.5L148.2,246.5c-0.4-0.7-1.6-0.9-2.2-1.1c-1-0.3-1.1-1-1.6-1.9c-1.6-2.8-2-2.2-4.8-3.1
		c-2.2-0.8-2.9-1.8-5.2-1.1c3.7,4.6,7.6,7.1,12.6,9.8C150.1,250.2,149.8,249.1,148.2,246.5L148.2,246.5z M670,466.9l0.1,0.1
		c0.7,3.5,1.8,6.2,0.5,9.4c-0.5-0.5-1-1-1.5-1.5c0.4,3.5,0,7-1.2,10.2c-1.8,6-3.6,12-5.4,18c-0.5,1.6-1,3.3-1.5,4.9
		c-0.1,0.2-3.9,1.4-4.4,1.6c-0.8,0.4-4.4-1-4.6-1.8c-0.3-2.2-0.7-4.3-1.2-6.5c-0.6-2.3-1.2-4-0.4-6.3c0.6-2,2.9-4,3.2-6
		c0.2-1.9-1.1-4.9-1.5-6.7c-0.2-1,0.7-5,1.6-5.1c2.1-0.4,4.1-1.2,6-2.2c1.9-1,2.6-2.6,4.1-4.3c1.8-2.1,2.7-2.1,2.8-5.1
		C666.7,461.9,669.2,465.8,670,466.9L670,466.9z M880.1,368.7c0.5,0.4,1,0.8,1.4,1.3c0.3-1.1-0.7-1.4-0.5-2.4
		c0.3-1.8,0.6-3.7,0.9-5.5c0.1-0.7,1.4-1.2,2.1-1c2,0.4,1,1.6,3.2,0.5c0.7,1.5-0.6,2.1-0.4,3.2c0.4,2.1,1.3,1.1,0.5,3.5
		c-0.1,0.6-0.3,1.3-0.5,1.9c-0.3,0.4-1.4-0.4-1.4,0.4c0.1,2-1.4,1.3-0.2,3.5c0.6,1.1,0,2.7,1.5,2.7c0.5,0,0.7-1.2,1.4-1
		c0.6,0.1,1.2,0.3,1.7,0.6c0.6,0.4,1.2,0.8,1.8,1.1c0.5,0.1,0.6-1.2,1.1-0.6c1.3,1.3,0.2,2.1-1.2,1.4c-0.1,1.9,2,1.3,1.1,3.4
		c-0.6-0.4-2.4-1.2-2.4-1.9c0-1.9-0.3-1.7-2-2.3c-0.1,0.8-0.3,1.6-0.4,2.4c-0.3-0.6-0.8-1.2-1.4-1.6c-1.7-1-1.2,0.1-2.6,0
		c-1.5-0.2-2.8-2-0.9-3c-0.9-0.4-2.4-0.5-2.6-1.6C880.2,372,879.4,370,880.1,368.7L880.1,368.7z M885.4,343.1
		c-0.5,2.2-1.4,4.4-2.5,6.4c-1.2-1.8-2.7-3.3-2.3-5.7c0.4-2.2,1.7-4.1,3.7-5.3C887.4,337.1,885.7,341.5,885.4,343.1L885.4,343.1z
		 M878.4,385.2c0.3,0.2,0.6,0.5,0.9,0.8c-0.2,0.6,0.4,2.6,0.2,2.7c-0.6,0.5-2.5,1.4-2.6,2.2c-0.5,3-2.7,3.5-5.1,4.9
		c1-1.9,2.4-3.7,4-5.2C877.7,389,877.9,387.6,878.4,385.2L878.4,385.2z M898.5,392.8c0.8-0.4,1,0.7,0.9,1.5
		c-0.2,0.2-0.4,0.4-0.6,0.7c0.2,0,0.4,0.3,0.8,0.3c0.1,0.4,0,0.7,0,1.1c1.4,0.1,0.2,3.6,0,4.5c-0.2-0.1-0.3-0.2-0.5-0.3
		c0,0.7-0.1,1.4-0.1,2.1c-0.7-1.2-0.2-2.4-1.1-3.5c-1.7,1.2-0.8,2.2-0.5,3.7c0.4,2-1.9,2.8-1.2,0.6l-0.3,0c-0.5,1.7-3.1-0.3-3.5-1.3
		c-0.6-1.6,1.5-4.7-1.7-4.3c0.1,0.4-0.1,1,0.1,1.4c-0.7-0.5-0.7-0.2-0.8-1.1c-0.4,0.5-0.5,0.3-0.8,1c-0.5-3.2-1.8,1.2-2.5,1.7
		c-1.5-2.1,1.1-3.7,2.5-4.1c0.8-0.2,0.2-2.2,1.7-2.1c1.3,0.1,1.4,1.6,0.7,2.4c1.2-0.5,1.8-2.7,3.2-1.7c-0.1-1.2,0.2-1.9,1.2-1.3
		c0.5-0.7,0.3-0.5,1.3-0.4c-0.1-0.9-0.3-1.7-0.4-2.6C897.6,391.2,898.3,391.9,898.5,392.8L898.5,392.8z M882.3,456.2
		c1.3,3-3.4,0-4.9-0.6C877.2,453.2,881.8,454.9,882.3,456.2z M872.6,451.9c0.9,0,1.5-0.4,1-1.4c1.8-0.7,6.5,1.7,2.2,2.5
		c-3,0.5-5,0.7-7.9-0.2c0.6-1.4,0.5-2,1.9-2C870.9,450.8,871.8,451.2,872.6,451.9L872.6,451.9z M885.3,453.2c-0.7,0.1-0.9-0.8-2,0.1
		c-0.6-0.7-4.8-0.3-3.2-2c1.4-1.5,4.3,1,5.6,0.2c0.7-0.4,1.4,0.7,2,0.2c1.1-0.9,1.2-1.1,2.5-1c2.2,0.2,3.5-0.6,5.7,0.2
		c-1.5,1.4-4.8,0.5-6.6,0.5c-0.8,0-1.5,1.3-2.8,1.1C886,452.5,885.8,453.1,885.3,453.2L885.3,453.2z M887.2,441.1
		c0.2-0.8,0.9-3.6,1.7-1.5c-0.2-1.5,1-2.1,1.5-0.5c-0.7-0.2-1.3,0.4-0.7,1.1c0.7,1,0,1.4-0.7,2.4
		C888.3,442.2,887.7,441.6,887.2,441.1L887.2,441.1z M847.2,421.4c0.1-1.2,0.3-2.4,0.4-3.6c0.7-0.4,1.3-0.8,2-1.2
		c0.4,2.2,3.4,2.1,5,2.5c-1.7-1.6-1.2-1.6,0-3.6c0.9-1.6,2.4-1.6,4.1-2.2c1.5-0.5,2.1-2,3-3.4c1.3-2,1.6-2,3.8-2.5
		c1.7-0.5,0.7-1.5,1.9-2.9c0.7-0.7,2.7-4,3.7-4.2c0.8-0.1,3.1,2.1,3.7,2.9c0.4,0.6,1,1.7,1.7,1.9c0.9,0.2,1.4,0.1,1.8,1.1
		c-1,0.3-2.1,0.6-3.2,0.9c0.4,0.6,0.9,1.2,1.3,1.8c-0.8,0.2-3.5,0.1-3.6,1.5c-0.1,2.8,0.8,2.6,1.6,5c0.2,0.4-0.5,1.2-0.3,1.6
		c0.3,0.6,1.4,1.3,1.9,1.7c2,1.8,1,2.2-1.2,1.7c-1.1-0.2-1.9,1.9-1.8,3.1c0.2,2.6,0.2,2.6-1.7,4.3c-1.4,1.2-1.9,1.3-1.9,3.1
		c0,2-0.1,4-0.1,6c-1,0.1-1-0.7-0.7-1.6c-1.4,0.7-2.8,1.4-4.2,2.1c-0.2-0.7-0.3-2.2-0.9-2.4c-0.6-0.2-1.6,0.2-2-0.1
		c-2.6-1.6-2.8-1-5.5,0.5c-0.1-0.8-0.3-1.6-0.4-2.4c-0.8,0.4-4.3,1.8-4.4,0.1c-0.2-2,0.1-4.9-1.5-6.3c-0.3,0.9-0.1,0.5-1.1,0.9
		c0.3-1.3-0.2-0.6-0.4-1.4c-0.2-0.6-0.3-1.1-0.5-1.7c-0.1-0.5,0.6-0.7,0.5-1.1C848,422.7,847.1,422.1,847.2,421.4L847.2,421.4z
		 M894.2,456.7c-0.8,1-2.2,0.9-3.3,1.1c1.4-1.3-0.4-1.8,0.7-2.9c1.1-0.8,2.3-1.5,3.6-1.9c0.4-0.2,0.4-0.9,0.7-1.1
		c0.6-0.2,1.3-0.3,1.9-0.4c1.4-0.2,2.8-0.4,4.2-0.5c-0.5,1.9-4.3,2.9-5.8,3.6C895.4,455.2,894.7,455.9,894.2,456.7z M301.5,362.7
		c-2.3-0.4-3.1,0.6-5-0.7c-0.7-2,4.9,0.3,6.2-0.7c-1.4-2-1.1-2.7-3.3-3.8c2.1-1,2.7-0.3,4.9-0.3c0.7-0.1,1.3-0.3,2-0.5
		c0.7-0.4,1.9,0.4,2.7,0.6c1,0.3,1-0.4,1.6,0.7c0.8,1.5,0.8,1.5,2.3,1.8c0.6,0.1,2,1,1.6,1.6c-0.9,1.6-0.7,0.4-2,0.4
		c-1.8,0-2.9,0.5-4.5,0.6c-0.3,0-0.5-0.9-1.5-0.3c-0.5,0.4-0.5,2.3-1.1,2.5c-1.3,0.4-1.1-1.7-1.5-1.9
		C303.4,362.4,302.2,362.8,301.5,362.7L301.5,362.7z M474,174.6c-1.1-0.3-3.3,1.8-4.3,2.4c-0.9,0.1-1.7,0.2-2.6,0.4
		c-0.9,0.1-0.7,0.8-1.4,1.1c-1.3,0.6-2.9,0.7-4.3,0.3c-0.9-0.1-1.7-0.3-2.5-0.6c-0.4-0.3-0.8-1.6-1.3-1.5c-1.9,0.2-3.7,0.5-5.6,0.7
		c-0.7-1.9,2.1-1.4,2.7-3.1c-0.2,0-0.5-0.1-0.7-0.1c0-0.2,0.1-0.5,0.1-0.7c-1,0.1-1.4-0.5-0.7-1.3c-1.3,0-5.1,0.9-5.5-0.9
		c2.1,0,4.5-0.9,6.8-0.9c0-0.2,0-0.5-0.1-0.7c-0.8,0.3-1.6,0.3-2.3-0.2c0.8-0.4,1.6-0.8,2.4-1.2c-1-0.2-2.9-1.2-3.9-0.8
		c-2,0.8-2.5,1.2-4.5,0.3c0.7-0.4,0.5-0.6,1.4-0.5c0-0.3,0-0.6,0-1c0.6,0.3,1.5,0.9,1.9,0.2c0.3-0.7-1.7-0.6-0.6-2
		c0.9-1.2,3.9,2.1,3.6-0.8c-1-0.2-1.8,0.1-2.1-1.1c2.3,0,2.1,0.3,3.9,1.8c0.3,0.3,1.7,0.6,1.7,1.2c0,0.6-0.4,1.1-0.9,1.1
		c-0.1,0-0.2,0-0.3,0c0.5,1,1.1,1.9,1.8,2.9c0.3-0.9,0.7-1.9,1.2-2.8c0.6-1.1,2,0.1,0.9-2.3c1.3-0.3,2,1.2,2.9,2.1
		c-0.4-1.1,0.1-2.5,1.3-2.4c1.5,0,1.8,1.1,2.7,2.4c-0.1-0.9-0.2-1.7-0.4-2.6c2.3,1,2.9-0.2,5.3,0.1c-1.4-3.6,6.5-0.4,4.9,2.4
		c1.3-0.5,2.2,0.3,3.4,1c0.6,0.3-0.3,1.9,0.8,2.7c-0.9,0.9-1.7,2.3-3,1.5C476.7,173.7,475.6,175,474,174.6L474,174.6z M454.4,137.3
		L454.4,137.3c-0.3-1.4-1.8-4.7-1.3-6.1c1.2-3.6,2-8.1,4.5-10.8c1.6-1.8,3.3-3.7,5-5.5c0.5-0.5-0.7-4.7-0.8-5.4
		c-0.3-1.6-0.1-4.1-1.4-5c-1.7-1.1-3.3-2.3-5-3.4c2.4-2.4,4.8-4.8,7.3-7.1c-2.6-1.7-4.2-2.4-5.5-5.4c-1-2.3,2-5.2,3.2-7.2
		c1.3-2.1,3.7-3,5.7-4.4c2.1-1.4,4-3.1,5.7-5.1c-0.6-0.5-1.3-1.1-1.9-1.6c2.2-0.5,4.8-0.5,6.8-1.7c2.5-1.5,5.1-2.9,7.6-4.4
		c-2.8-1.1-5.9-2.9-8.8-3.4c-2.1-0.4-6.5-0.8-7.9,1c-0.9,1.2-1.6,2.9-3,2.6c-1.8-0.3-3.5-0.6-5.3-0.9c-2-0.3-6,2.4-7.9,3.3
		c0.3-0.6,4-6.5,1.4-6.5c-2.3-0.1-4.5,0.4-6.5-1.2c3.2-1.1,6.3-2.3,9.4-3.4c-6.1-2.7-11.6-5.5-18.1-6.4c-7.3-1-14.2-2.4-21.5-1.8
		c-2.6,0.2-5.2,0.5-7.8,0.7c-0.9,0.1-2.7-0.2-3.5,0.3c-1.3,0.7-1.4,3.6-3.1,3.3c-2.1-0.4-4.2-0.7-6.3-1.1c-2.5-0.4-5.6-1.7-8-0.7
		c-3.5,1.6-7.1,3.2-10.6,4.9c3.3,2.1,7,3.7,9.2,7.3c-5.8-2.2-11.7-3.9-17.7-5.2c-1.9-0.4-4.6,0.6-6.5,0.8c-4.3,0.6-8.6,1.1-12.8,1.7
		c-1.9,0.2-4.8,0-6.5,0.9c-2.4,1.2-4.9,2.5-7.3,3.8c-6,3.1-12,6.2-18,9.3c2.2,2.4,4.9,2,7.9,2.4c-0.7,1.7-1.3,3.4-2,5.1
		c-0.7,1.9-1,1.5-2.9,1.6c-2.6,0.2-5.2,0.7-7.7,1.5c-3.5,1-7,2-10.5,3c-0.8,0.2-0.8,2.3-1,3.2c-0.1,0.6,1.5,2.2,1.8,2.7
		c1,1.4,2.4,4.3,3.9,5.1c2,1.2,4.1,2.4,6.1,3.6c1,0.6,3.9,3.1,5.1,2.9c2.3-0.3,4.6-0.6,6.9-0.9c4.2-0.5,7.8,0.3,11.9,1
		c2.1,0.4,4.3,0.7,6.4,1.1c1,0.2,3.2,4.1,3.9,4.9c2.9,3.7,4.4,8,6.3,12.4c1,2.3,1.4,2.6,0.6,5c-0.8,2.3-2,3.6-0.4,5.4
		c1.7,1.8,3.8,2.8,3.2,5.4c-0.6,2.5-1.7,4,0,5.8c2.1,2.4,2,2.3,4.9,1.5c2.1-0.6,4.2-1.2,6.3-1.9c-0.2,1.6-0.4,3.2-0.6,4.7
		c-0.1,0.5-2,1-2.5,1.2c-1.5,0.6-2.9,1.3-4.4,1.9c-0.3,0.1-0.4,2.2-0.4,2.6c-0.3,2.1-1.4,5.8-0.7,7.8c1.1,3,2.1,6,3.2,9
		c1.7,4.8,4.8,8.8,7.5,13c1.6,2.5,3.2,5,4.8,7.6c0.8,1.3,3.1,1.5,4.3,1.9c2.6,1,5.1,1.9,7.7,2.8c0.6,0.2,4.2,0.3,4.3-0.1
		c1.6-5,3.2-9.9,4.8-14.9c1.3-4,2.7-7.9,4.1-11.8c0.8-2.1,0.7-2.2,2.6-2.8c2.6-0.8,5.1-1.7,7.7-2.5c1.6-0.5,4-0.8,5.4-1.8
		c1.6-1.1,3.1-3.8,4.3-5.4c1.1-1.4,1.6-2.3,3.1-2.7c2.4-0.7,4.8-1.3,7.2-1.9c3.5-0.9,7.7-1.3,10.9-3.2c3.9-2.4,7.9-4.8,11.8-7.2
		C455,140.1,455.1,140.2,454.4,137.3L454.4,137.3z M849.6,361.8c-0.5,0.2,0.3,0.8-0.6,0.7c-0.6,0-1.2-0.2-1.7-0.5
		c-1.5-0.9-1.2-1.3-1.2-3.2c1.9-1.2,3.2-3.8,6-2.2c0-0.2,0.1-0.5,0.2-0.7c0.9,0.2,1.3,1,1,2c-1.1-0.1-1.3,1.4-1.5,2.4
		C851.8,361.4,850.4,361.5,849.6,361.8L849.6,361.8z M837.5,443c-1.1-2.2-1.9,0.2-3.2-1.4c0,0.5-0.2,1.1-0.2,1.7
		c-2.9-2.7-5.4-5.4-8-8.2c-1.4-1.2-2.5-2.7-3.4-4.3c-0.9-1.9-1.7-5.4-3.2-6.9c-0.6-0.6-1.5-0.3-1.7-1.2c-0.4-1.4-0.7-2.7-1.1-4.1
		c-0.6-2.3-3.5-1.8-3.6-4.3c-0.1-2.3-2.7-2.8-3.9-3.8c-0.5-0.5-3.7-4.4-3-5.3c0.4-0.6,4.3,0.9,5.2,1c2.6,0.3,2.2,1.3,3.6,3.3
		c1.1,1.4,3.1,2.8,4.4,4c1.5,1.4,3.4,2,4.6,3.7c0.7,0.9,1.4,0.8,2.5,1c1.8,0.3,0.6,0.6,1.6,1.4s1.6,0.1,1.6,1.6
		c0,0.8,1.8,0.7,2.1,2.1c0.2,0.9-0.9,1.3-0.7,2.5c0.1,0.8,1.7,1,2.4,1.3c0.5,0.2,0.6,2.4,0.7,3c0.2,1.2,1.6,1.1,0.2,2.5
		c0.8-1,2.4-1.2,3.4-0.3c0.8,0.7,1.1,1.8,0.7,2.8C837.5,437.2,838,440.5,837.5,443L837.5,443z M844.2,431.8c1.3,1.1,1.2,3.3-0.9,2.6
		C843.2,433.8,842.5,430.5,844.2,431.8z M861.3,448.9c3.2-0.7,1.4,1.9,2.8,3.7c-1.2-0.5-2.3-1-3.5-1.5c-2,0.4-2.7-0.3-4.6-0.4
		c-0.3,0-0.5,0.6-0.9,0.5c-0.6-0.1-1.3-0.2-1.9-0.2c-0.8-0.2-1.6-0.4-2.4-0.8c-0.9-0.4-1.8-0.8-2.8-1c-0.9-0.1-2,0.6-2.9,0.4
		c-1.8-0.3-3.5-1.4-5.4-1.8c0.1-0.3,0.1-0.6,0.2-0.9c-1.6-0.4-4.1-0.5-2.2-2.7c0.6-0.8,0.7-1.1,1.6-0.9c0.9,0.2,1.8,0.9,2.1-0.2
		c0.6,0.4,3.7,1.1,3.9,1.5c1.3,2.1,2.9,1.6,5.1,1.9c0.6,0.1,1.4,0.5,1.6-0.2c0.4-1.2,0.8-1.7,1.7-0.7c0.7,0.9,3.4,1.2,4.4,0.7
		C857.8,448.1,859.8,449.3,861.3,448.9L861.3,448.9z M835.8,430.2c0.6-0.8,1-2.2,1.9-0.8c-0.1-0.3-0.1-0.6-0.1-0.9
		c2.1-0.2,0.8,3.6,3.3,3.5c-0.7,0.6-0.8,1.1-0.3,1.7c-0.7,0-1.3-0.3-1.7-0.8c-0.6-0.5-0.3-0.8-0.7-1.3c-0.3-0.4-0.5-1.2-0.9-1.2
		C836.7,430.6,836.1,430.5,835.8,430.2L835.8,430.2z"/>
</g>
</svg>
